<?xml version="1.0" encoding="utf-8"?>
<!-- Generator: Adobe Illustrator 27.5.0, SVG Export Plug-In . SVG Version: 6.00 Build 0)  -->
<svg version="1.1" id="Ñëîé_1" xmlns="http://www.w3.org/2000/svg" xmlns:xlink="http://www.w3.org/1999/xlink" x="0px" y="0px"
	 viewBox="0 0 3000 2000" style="enable-background:new 0 0 3000 2000;" xml:space="preserve">
<g id="_x36_">
	<rect style="fill:#FFFFFF;" width="3000" height="2000"/>
	<path style="fill:#8A9EFF;" d="M2816.791,1720.239H183.21c-5.523,0-10-4.478-10-10s4.477-10,10-10h2633.582c5.522,0,10,4.478,10,10
		S2822.313,1720.239,2816.791,1720.239z"/>
	<path style="fill:#D4E8FF;" d="M753.622,1695.87c0,0-280.419-725.669-78.62-887.257c134.883-108.006,277.853,130.088,448.496,4.131
		c151.921-112.137-59.884-394.625,193.601-468.524c266.435-77.675,484.714,551.368,708.273,464.393
		c271.274-105.538,541.12,108.706,307.924,888.643L753.622,1695.87z"/>
	<path style="fill:#DCE6FF;" d="M534.215,1633.656c-4.707-14.425-9.365-29.371-13.843-44.424l11.036-3.282
		c4.449,14.955,9.076,29.804,13.752,44.133L534.215,1633.656z M2508.535,1615.027l-11.427-1.411
		c1.897-15.355,3.699-30.819,5.355-45.963l11.446,1.253C2512.247,1584.103,2510.439,1599.62,2508.535,1615.027z M507.661,1544.485
		c-4.03-14.876-7.938-30.029-11.616-45.038l11.183-2.74c3.657,14.918,7.541,29.98,11.547,44.768L507.661,1544.485z
		 M2518.622,1522.709l-11.461-1.083c1.457-15.417,2.806-30.925,4.009-46.092l11.477,0.909
		C2521.44,1491.669,2520.085,1507.235,2518.622,1522.709z M485.524,1454.144c-3.326-15.156-6.49-30.481-9.405-45.55l11.304-2.186
		c2.897,14.975,6.042,30.206,9.346,45.268L485.524,1454.144z M2525.952,1430.115l-11.491-0.727
		c0.975-15.406,1.83-30.946,2.54-46.187l11.501,0.536C2527.789,1399.042,2526.931,1414.645,2525.952,1430.115z M467.868,1362.818
		c-2.56-15.342-4.931-30.812-7.045-45.982l11.403-1.589c2.101,15.068,4.456,30.435,6.999,45.676L467.868,1362.818z
		 M2530.26,1337.316l-11.51-0.334c0.449-15.474,0.759-31.031,0.92-46.238l11.514,0.122
		C2531.022,1306.143,2530.711,1321.771,2530.26,1337.316z M455.045,1270.668c-1.717-15.496-3.211-31.081-4.441-46.322l11.476-0.927
		c1.222,15.128,2.704,30.598,4.408,45.981L455.045,1270.668z M2519.719,1244.502c-0.135-15.486-0.43-31.038-0.875-46.224
		l11.51-0.337c0.446,15.265,0.742,30.896,0.879,46.46L2519.719,1244.502z M447.585,1177.903c-0.764-15.587-1.27-31.236-1.505-46.514
		l11.513-0.178c0.233,15.15,0.735,30.67,1.492,46.129L447.585,1177.903z M2516.993,1152.095
		c-0.791-15.466-1.763-30.983-2.888-46.122l11.481-0.854c1.133,15.227,2.11,30.835,2.906,46.388L2516.993,1152.095z
		 M457.702,1085.065l-11.512-0.237c0.321-15.628,0.939-31.283,1.838-46.526l11.494,0.677
		C458.631,1054.077,458.019,1069.582,457.702,1085.065z M2510.111,1059.943c-1.538-15.462-3.28-30.906-5.176-45.903l11.422-1.444
		c1.909,15.097,3.662,30.644,5.211,46.207L2510.111,1059.943z M463.173,993.016l-11.456-1.151c1.564-15.57,3.47-31.131,5.667-46.253
		l11.394,1.655C466.605,962.222,464.72,977.615,463.173,993.016z M2498.489,968.313c-2.396-15.365-5.025-30.672-7.816-45.496
		l11.314-2.131c2.814,14.942,5.465,30.369,7.879,45.853L2498.489,968.313z M1136.787,966.688
		c-15.999-2.522-27.571-9.805-43.601-22.382l7.277-8.922c14.043,10.989,24.186,17.58,37.55,19.855L1136.787,966.688z
		 M1176.733,939.294l-10.254-5.236c5.271-10.321,9.93-24.643,13.849-42.569l11.248,2.458
		C1187.389,913.104,1182.533,927.937,1176.733,939.294z M1059.395,911.284c-9.172-10.214-18.974-21.969-29.966-35.938l9.048-7.12
		c10.837,13.77,20.481,25.338,29.485,35.365L1059.395,911.284z M476.469,901.842l-11.303-2.194
		c2.983-15.367,6.358-30.691,10.031-45.545l11.177,2.764C482.747,871.533,479.414,886.665,476.469,901.842z M2481.367,877.62
		c-3.409-15.207-7.088-30.282-10.932-44.808l11.132-2.946c3.881,14.666,7.593,29.886,11.034,45.236L2481.367,877.62z
		 M1199.323,847.61l-11.419-1.47c1.768-13.743,3.353-28.793,4.845-46.009l11.471,0.994
		C1202.714,818.503,1201.112,833.708,1199.323,847.61z M1001.229,838.252c-9.359-12.639-19.066-26-27.431-37.53l9.32-6.761
		c8.348,11.508,18.036,24.841,27.364,37.439L1001.229,838.252z M1844.174,837.305c-8.966,0-17.764-2.679-26.148-7.962l6.139-9.741
		c12.594,7.95,24.984,7.968,38.362,1.627l4.954,10.393C1859.57,835.393,1851.729,837.305,1844.174,837.305z M498.621,812.498
		l-11.011-3.367c4.575-14.96,9.594-29.838,14.918-44.222l10.797,3.996C508.078,783.082,503.131,797.749,498.621,812.498z
		 M1905.13,801.521l-8.46-7.81c8.73-9.455,18.088-21.117,28.61-35.655l9.328,6.751
		C1923.815,779.718,1914.173,791.728,1905.13,801.521z M1785.288,793.605c-7.451-11.495-14.835-25.032-22.574-41.383l10.407-4.925
		c7.518,15.885,14.658,28.984,21.829,40.046L1785.288,793.605z M2457.714,788.507c-4.638-14.918-9.587-29.603-14.71-43.648
		l10.817-3.945c5.186,14.218,10.195,29.081,14.888,44.176L2457.714,788.507z M946.512,763.186
		c-10.534-14.396-19.313-26.215-27.628-37.195l9.179-6.951c8.354,11.031,17.168,22.898,27.741,37.346L946.512,763.186z
		 M1207.683,754.628l-11.49-0.743c0.873-13.49,1.761-28.651,2.714-46.351l11.497,0.62
		C1209.449,725.895,1208.559,741.097,1207.683,754.628z M530.584,726.286l-10.534-4.649c6.32-14.315,13.056-28.372,20.213-42.117
		l10.21,5.323C543.431,698.367,536.804,712.198,530.584,726.286z M1960.985,726.283l-9.621-6.326
		c8.182-12.439,16.634-25.619,25.188-38.932l9.686,6.224C1977.663,700.597,1969.203,713.787,1960.985,726.283z M1744.18,709.255
		c-5.215-13.081-10.604-27.353-16.475-43.631l10.83-3.906c5.828,16.156,11.173,30.311,16.34,43.273L1744.18,709.255z
		 M2426.066,702.074c-6.19-14.419-12.738-28.425-19.462-41.63l10.261-5.224c6.837,13.427,13.492,27.663,19.781,42.312
		L2426.066,702.074z M890.457,689.508c-10.447-12.968-20.172-24.51-29.73-35.286l8.614-7.64
		c9.679,10.913,19.52,22.591,30.082,35.703L890.457,689.508z M1212.801,661.709l-11.5-0.58c0.776-15.382,1.546-30.772,2.368-46.432
		l11.498,0.604C1214.346,630.953,1213.575,646.335,1212.801,661.709z M2011.481,648.362l-9.606-6.349
		c9.62-14.555,18.224-27.147,26.304-38.492l9.378,6.679C2029.556,621.435,2021.026,633.918,2011.481,648.362z M573.307,645.112
		l-9.704-6.196c9.048-14.17,18.377-26.967,27.727-38.037l8.796,7.43C591.104,618.989,582.081,631.372,573.307,645.112z
		 M1712.332,621.688c-5.28-15.473-10.461-30.955-14.832-44.059l10.922-3.643c4.365,13.085,9.537,28.543,14.807,43.983
		L1712.332,621.688z M829.07,620.882c-11.768-11.457-23.339-21.578-34.391-30.083l7.021-9.125
		c11.405,8.775,23.316,19.191,35.402,30.958L829.07,620.882z M2384.25,620.39c-8.25-13.463-16.9-26.195-25.71-37.844l9.182-6.945
		c9.036,11.947,17.9,24.993,26.344,38.773L2384.25,620.39z M632.42,576.984l-6.983-9.154c13.75-10.489,28.06-18.052,42.533-22.482
		l3.369,11.01C658.175,560.387,645.081,567.326,632.42,576.984z M2065.328,573.463l-8.945-7.249
		c10.797-13.323,21.029-24.787,31.28-35.047l8.145,8.137C2085.843,549.279,2075.873,560.453,2065.328,573.463z M1217.747,568.936
		l-11.493-0.685c0.997-16.736,1.987-31.934,3.026-46.462l11.484,0.822C1219.729,537.093,1218.742,552.246,1217.747,568.936z
		 M756.613,566.525c-14.367-7.149-28.499-11.713-42.002-13.563l1.563-11.407c14.747,2.021,30.078,6.953,45.569,14.662
		L756.613,566.525z M2328.921,547.913c-11.084-11.356-22.562-21.38-34.112-29.793l6.779-9.307
		c12.07,8.791,24.038,19.24,35.573,31.058L2328.921,547.913z M1682.814,533.572c-5.728-17.131-10.448-31.098-14.854-43.958
		l10.891-3.733c4.418,12.887,9.147,26.881,14.883,44.039L1682.814,533.572z M2130.267,509.913l-6.599-9.434
		c14.16-9.906,28.462-17.243,42.51-21.805l3.556,10.95C2156.771,493.834,2143.493,500.661,2130.267,509.913z M2255.895,495.808
		c-14.26-6.015-28.694-9.737-42.902-11.064l1.07-11.464c15.381,1.437,30.96,5.447,46.305,11.92L2255.895,495.808z M1224.448,476.385
		l-11.469-1.019c1.435-16.154,2.996-31.755,4.64-46.371l11.442,1.287C1227.427,444.809,1225.875,460.32,1224.448,476.385z
		 M1652.64,445.823c-5.564-15.529-10.806-29.724-16.029-43.396l10.756-4.108c5.251,13.747,10.521,28.015,16.111,43.62
		L1652.64,445.823z M1234.922,384.373l-11.396-1.647c2.329-16.12,4.889-31.623,7.609-46.077l11.315,2.128
		C1239.761,353.073,1237.228,368.413,1234.922,384.373z M1619.507,359.439c-6.187-14.881-12.422-29.119-18.536-42.318l10.448-4.839
		c6.177,13.336,12.475,27.715,18.721,42.737L1619.507,359.439z M1252.228,293.724l-11.171-2.79
		c4.016-16.078,8.443-31.221,13.158-45.012l10.894,3.725C1260.5,263.13,1256.165,277.96,1252.228,293.724z M1580.523,275.8
		c-7.573-14.262-15.308-27.651-22.992-39.794l9.729-6.156c7.839,12.389,15.722,26.032,23.432,40.551L1580.523,275.8z
		 M1282.401,207.464l-10.325-5.096c7.56-15.318,15.944-28.862,24.919-40.257l9.045,7.124
		C1297.56,180.001,1289.607,192.863,1282.401,207.464z M1531.142,198.663c-10.06-12.612-20.444-23.784-30.863-33.205l7.724-8.54
		c10.879,9.838,21.693,21.468,32.14,34.565L1531.142,198.663z M1338.162,139.393l-6.207-9.697
		c13.639-8.729,28.666-14.406,44.665-16.87l1.753,11.379C1363.97,126.424,1350.442,131.534,1338.162,139.393z M1463.953,139.386
		c-13.412-7.23-27.383-12.174-41.525-14.692l2.019-11.336c15.349,2.733,30.479,8.081,44.97,15.893L1463.953,139.386z"/>
	<path style="fill:#EEF7FF;" d="M2581.502,1458.527c-95.545-14.162-79.954,113.785-216.147,113.785
		c-124.52,0-164.357-487.247-254.956-347.964c-464.466,714.048-194.759-303.662-564.141-316.595
		c-167.024-5.848-278.321,172.248-319.363,487.574c-59.493,285.066-197.465-217.424-339.454-170.704
		c-90.241,29.693-79.906,347.689-204.427,347.689c-136.193,0-120.601-127.947-216.146-113.785
		c-102.87,15.248-133.596,241.712-133.596,241.712h2381.826C2715.097,1700.239,2684.372,1473.775,2581.502,1458.527z"/>
	<path style="fill:#DCE6FF;" d="M2496.891,1597.025c-87.899-6.047-73.555,48.588-198.85,48.588
		c-114.555,0-111.408-122.444-188.067-148.468c-141.172-47.923-257.558,194.619-312.29,72.893
		c-103.951-322.994-407.131-484.973-547,0c-54.732,121.727-182.723-95.477-312.29-72.893
		c-79.754,13.902-73.512,148.468-188.068,148.468c-125.294,0-110.95-54.635-198.849-48.588
		c-94.638,6.511-122.905,103.214-122.905,103.214h2191.223C2619.796,1700.239,2591.529,1603.536,2496.891,1597.025z"/>
</g>
<g id="_x35_">
	<path style="fill:#F99370;" d="M2361.901,1015.355c-0.461-19.466-12.629-33.541-23.351-48.472
		c-22.639-32.245-57.191-56.956-86.84-81.419c-33.347-30.76-57.091-72.76-78.504-113.339c-6.549-13.377-28.024-5.304-24.22,8.998
		c12.297,51.215,32.177,98.94,64.989,141.383C2289.17,1019.777,2361.626,1061.015,2361.901,1015.355z"/>
	<path style="fill:#3A72AA;" d="M2250.425,995.55c1.55,1.37,3.16,2.72,4.81,4.05c0.01,0.01,0.01,0.01,0.02,0.01
		c24.59,19.82,58.08,34.34,58.08,34.34c0.96-1.26,1.86-2.33,2.72-3.26c6.3-6.87,9.94-6.21,15.14-20.22
		c10.12-27.25,18.91-59.52-3.92-74.79c-51.7-34.59-68.68-68.9-91.51-66.53c-11.39,29.14-38.78,29.09-38.78,29.15
		C2184.035,927.75,2226.615,974.54,2250.425,995.55z"/>
	<path style="fill:#F99370;" d="M2134.267,745.548c-9.315-6.208-0.1-19.437,5.002-7.394l-0.158-0.109
		C2144.02,741.119,2139.088,748.767,2134.267,745.548z"/>
	<path style="fill:#F99370;" d="M2139.071,741.422c-9.762-11.408,6.126-17.791,5.863-7.046c0.041-0.107-0.02-0.161,0.057,0.056
		c0.074,0.202,0.268,0.52,0.431,0.711c0.003,0.007,0.082,0.088-0.026-0.022C2149.541,739.167,2143.098,745.592,2139.071,741.422z"/>
	<path style="fill:#F99370;" d="M2144.423,736.319l-2.011-4.016c-2.67-5.141,5.458-9.224,7.979-4.001c0,0,2.011,4.016,2.011,4.016
		C2155.072,737.459,2146.944,741.542,2144.423,736.319z"/>
	<path style="fill:#F99370;" d="M2173.206,772.126c0,0,0.407-30.555-14.073-43.712l-26.037,14.065c0,0,2.925,24.855,16.464,41.309
		L2173.206,772.126z"/>
	<path style="fill:#F99370;" d="M2167.219,744.176c-0.072-6.251-21.941-46.133-28.493-39.396c-2.723,2.599,0.602,5.557,2.173,7.701
		c5.934,8.023,10.752,17.05,13.688,26.588c2.007,4.534,0.404,12.56,7.141,12.915
		C2165.824,752.179,2168.573,747.919,2167.219,744.176z"/>
	<path style="fill:#F99370;" d="M2171.444,721.528c-4.074,11.581-8.431,23.361-13.365,34.537
		c-4.062,9.576,11.174,14.708,13.718,4.602c2.899-12.474,4.978-24.788,6.903-37.379
		C2179.464,718.893,2172.75,717.302,2171.444,721.528z"/>
	<path style="fill:#E57D61;" d="M2137.601,746.857c4.966-0.873,4.399-6.892,2.27-3c-2.613,3.572-4.857,0.374-6.17,1.324
		C2133.324,746.872,2136.424,747.044,2137.601,746.857z"/>
	<path style="fill:#E57D61;" d="M2143.16,743.33c1.93-0.065,5.572-3.721,3.583-5.237c-1.514,0.371-0.51,3.878-4.517,3.971
		c-2.586,0.005-4.065-2.622-4.954-4.715c-0.589-0.768-0.068-3.669-1.375-3.768c-0.364,0.037-0.639,0.37-0.601,0.74
		C2135.612,738.44,2138.26,744.12,2143.16,743.33z"/>
	<path style="fill:#E57D61;" d="M2149.321,739.381c3.317-0.552,5.242-4.371,3.683-7.365c0,0-2.011-4.016-2.011-4.016
		c-0.381-0.784-1.607-0.175-1.205,0.604c0,0,2.011,4.016,2.011,4.016c2.272,4.373-4.642,7.824-6.774,3.397
		c-0.043-0.076-2.059-3.503-2.325-6.647c-0.031-0.371-0.357-0.646-0.729-0.615c-0.372,0.034-0.646,0.357-0.615,0.728
		C2142.662,735.583,2144.036,739.769,2149.321,739.381z"/>
	<path style="fill:#E57D61;" d="M2154.449,761.482c1.904-10.529,11.222-24.111,11.769-23.846
		c-0.427-4.246-11.13,11.366-12.56,23.113C2153.606,761.188,2154.018,761.566,2154.449,761.482z"/>
	<path style="fill:#F99370;" d="M2362,1674.853c7.228-2.317,11.815-9.408,10.921-16.943c0,0-114.84-344.905-46.415-498.361
		c20.374-45.692,87.501-45.361,163.878-8.652c22.654,82.904,12.636,158.731,47.081,215.402
		c25.257,41.556,76.368,74.752,172.004,83.121l-13.775,84.826c-0.782,4.814-6.569,6.88-10.228,3.654
		c-10.675-12.019-4.876-29.405-8.299-46.018c-1.18-7.495-7.489-13.011-15.069-13.391
		c-214.57-10.762-235.326-100.379-253.862-186.871c0,0-20.453,201.223-1.017,375.627c0.853,7.654,3.212,28.428,1.714,32.991
		l-85.835-0.575c-4.934-0.033-7.936-5.518-5.241-9.65C2328.169,1677.754,2346.123,1680.766,2362,1674.853z"/>
	<path style="fill:#23659B;" d="M2255.255,999.61c24.59,19.82,58.08,34.34,58.08,34.34c0.96-1.26,1.86-2.33,2.72-3.26l2.03-34.73
		c0,0-14.3,20.07-22.73,21.45C2287.095,1018.76,2256.435,1000.33,2255.255,999.61z"/>
	<path style="fill:#C92828;" d="M2377.099,794.838c0,0-17.053-15.598-37.051,6.424c-19.998,22.021-10.287,26.899-37.435,50.037
		c-27.148,23.138,0.213,65.266,22.19,72.606c21.977,7.34-4.178,32.854,39.878,40.929
		C2408.738,972.909,2522.275,860.834,2377.099,794.838z"/>
	<path style="fill:#F99370;" d="M2346.594,932.034l1.623,11.687c-6.184,6.144-9.917,86.575-8.988,90.697
		c1.794,7.958,16.365,18.681,24.024-3.021c2.494-7.067,19.647-88.452,21.162-91.18c0,0-0.255-15.938-0.704-21.131L2346.594,932.034z
		"/>
	<path style="fill:#EB5648;" d="M2701.729,1445.521c2.809,0.81,5.464,2.053,7.741,3.897l-13.888,85.526
		c-0.675,4.159-5.258,6.504-8.959,4.488c-8.644-4.736-20.124-18.169-15.785-57.927c0,0,6.171-12.764,5.759-35.462
		C2676.597,1446.044,2690.344,1442.218,2701.729,1445.521z"/>
	<path style="fill:#CE3932;" d="M2686.491,1539.36l15.238-93.839c2.809,0.81,5.464,2.053,7.741,3.897l-13.888,85.526
		C2694.903,1539.162,2690.19,1541.498,2686.491,1539.36z"/>
	<path style="fill:#EB5648;" d="M2411.598,1691.994c-0.369,2.899-1.19,5.713-2.663,8.245l-86.671-0.581
		c-4.214-0.028-7.237-4.195-5.813-8.16c3.353-9.266,14.868-22.67,54.832-24.491c0,0,13.564,4.135,35.937,0.241
		C2407.22,1667.248,2413.114,1680.24,2411.598,1691.994z"/>
	<path style="fill:#CE3932;" d="M2316.503,1691.356l95.095,0.637c-0.369,2.899-1.19,5.713-2.663,8.245l-86.671-0.581
		C2317.99,1699.636,2314.958,1695.339,2316.503,1691.356z"/>
	<path style="fill:#E57D61;" d="M2380.722,887.007c-0.014,0.627-0.049,1.265-0.12,1.885c-0.89-0.448,4.24,24.048,6.155,40.278
		c-13.613,9.532-36.568,5.867-39.757,5.6c-2.785-20.516-3.13-39.468-1.512-51.588
		C2349.298,862.545,2381.424,866.068,2380.722,887.007z"/>
	<path style="fill:#3A72AA;" d="M2315.775,1171.65c0,0,68.64,50.11,174.61-20.75c0,0-17.7-20.47-22.44-62.16
		c-0.74-6.44-1.16-13.4-1.16-20.87c0-5.08-0.09-9.81-0.24-14.2c-0.69-20.06-2.65-32.93-2.95-39.25
		c4.83-40.48-54.13-65.09-79.18-74.2c-10.05,16-19.13,88.11-33.37,90.15c-15.76-3.32-2.73-82.43-3.12-86.82
		c-9.57,17.67-25.33,45.48-34.45,59.88c-8.91,14.29-14.48,27.18-14.96,42.17C2297.725,1080.35,2335.845,1109.52,2315.775,1171.65z"
		/>
	<path style="fill:#F99370;" d="M2324.837,912.759c12.11,13.257,28.893,16.764,49.654,14.23
		c34.388-4.197,45.312-59.338,32.461-86.947c-7.685-18.784-30.724-30.844-49.82-22.223c-13.312,6.488-18.727,19.641-25.053,33.456
		c-1.878,3.589-5.416,8.231-8.831,11.358C2310.127,874.971,2309.412,895.016,2324.837,912.759z"/>
	<path style="fill:#E57D61;" d="M2376.386,848.573c26.699,9.706,22.884,31.438,22.884,31.438l11.109-11.021l-21.306-41.929
		l-22.227-11.884c-5.686,0.508-10.927,2.673-15.446,6.195C2351.399,821.372,2349.687,838.867,2376.386,848.573z"/>
	<path style="fill:#C16256;" d="M2351.973,865.437c-1.337-2.768,3.04-4.804,4.295-1.998
		C2357.605,866.206,2353.228,868.243,2351.973,865.437z"/>
	<path style="fill:#C16256;" d="M2332.186,861.403c-1.337-2.768,3.04-4.804,4.295-1.998
		C2337.819,862.172,2333.441,864.208,2332.186,861.403z"/>
	<path style="fill:#C16256;" d="M2339,882.252c1.125-0.074,3.459,0.221,3.26-1.391c-0.135-0.477-0.632-0.754-1.107-0.619
		c-3.054,0.965-10.292-1.38-6.711-3.403c5.174-2.575,8.915-12.069,9.072-12.471c0.435-1.071-1.262-1.744-1.671-0.65
		c-0.036,0.093-3.646,9.25-8.2,11.517C2328.028,878.898,2334.67,882.046,2339,882.252z"/>
	<path style="fill:#1D3F70;" d="M2304.175,1394.21c2.79,12.03,4.97,18.32,4.97,18.32c140.94,46.52,238.98-46.42,238.98-46.42
		c-3.24-4.06-6.04-9.56-8.48-16.13c-13.18-35.52-15.75-102.32-19.1-141.14c-4.11-47.77-34.7-89.21-46.39-103.47c0,0,0,0-0.01,0
		c-2.8-3.42-4.52-5.28-4.52-5.28c-85.14,27.08-150.33,15.2-150.33,15.2s-0.87,2.28-2.28,6.46c-5.53,16.26-19.41,61.21-22.9,111.6
		C2288.685,1311.6,2297.945,1367.29,2304.175,1394.21z"/>
	<path style="fill:#23659B;" d="M2347.928,943.551c0,0-8.1-9.548-20.656-7.868c0,0-10.213,92.131,23.779,108.525
		c0,0,38.613-7.494,49.417-109.859c0,0-13.032-0.554-16.05,5.872c0,0-19.035,37.295-33.367,86.571
		C2351.051,1026.792,2345.605,985.161,2347.928,943.551z"/>
	<path style="fill:#23659B;" d="M2436.275,1048.6c0,0,24.25,26.81,31.66,40.12c0,0.01,0.01,0.01,0.01,0.02
		c-0.74-6.44-1.16-13.4-1.16-20.87c0-5.08-0.09-9.81-0.24-14.2L2436.275,1048.6z"/>
	<path style="fill:#C16256;" d="M2337.506,890.008c9.741,1.981,15.161-2.803,15.397-3.017c0.459-0.416,0.493-1.124,0.078-1.583
		c-0.414-0.456-1.12-0.493-1.579-0.081c-0.219,0.194-5.352,4.635-14.742,2.184c-0.606-0.148-1.211,0.203-1.367,0.801
		c-0.156,0.599,0.203,1.211,0.801,1.367C2336.574,889.805,2337.046,889.914,2337.506,890.008z"/>
	<path style="fill:#C16256;" d="M2331.856,852.373c0.091,0.018,0.185,0.026,0.282,0.021l6.627-0.341
		c0.618-0.032,1.093-0.559,1.061-1.177c-0.032-0.618-0.561-1.091-1.176-1.061l-6.627,0.341c-0.618,0.032-1.093,0.558-1.061,1.176
		C2330.988,851.854,2331.367,852.274,2331.856,852.373z"/>
	<path style="fill:#C16256;" d="M2364.385,858.988c0.261,0.053,0.543,0.014,0.791-0.132c0.533-0.314,0.711-1.001,0.397-1.534
		c-0.153-0.259-3.82-6.354-12.125-7.841c-0.608-0.109-1.191,0.296-1.299,0.906c-0.109,0.609,0.298,1.22,0.906,1.299
		c7.273,1.318,10.555,6.718,10.587,6.772C2363.81,858.743,2364.085,858.927,2364.385,858.988z"/>
	<path style="fill:#F99370;" d="M2448.435,950.598c36.112,28.651,83.428,61.599,94.173,108.325
		c19.255,83.735-53.123,134.517-110.036,161.764c-1.734,0.959-11.036,5.876-12.919,6.697c-7.497,3.27-8.175,0.452-12.649-8.773
		c-3.188-7.609,0.004-11.991,5.431-16.282c4.121-3.258,9.866-6.737,13.135-9.953c85.399-74.278,62.059-118.771-14.094-174.451
		C2374.594,990.958,2410.665,924.939,2448.435,950.598z"/>
	<path style="fill:#EB5648;" d="M2431.407,1221.254c0,0-1.155-12.182-17.056-20.489c0,0,2.09-3.885,6.352-4.543
		c0,0,13.828,4.774,17.478,21.805C2438.18,1218.028,2436.113,1220.964,2431.407,1221.254z"/>
	<path style="fill:#3A72AA;" d="M2384.414,1010.532c0,0,41.42,28.749,77.617,58.496c36.198,29.746-5.933,69.339,4.479,78.569
		c0,0,26.178,5.54,34.445,28.923c0,0,36.219,3.067,48.807-61.191c23.862-121.809-97.825-186.677-149.294-180.979
		C2400.468,934.349,2396.052,985,2384.414,1010.532z"/>
	<path style="fill:#C92828;" d="M2357.137,817.821c4.978-24.45,63.753-63.756,99.778,2.393
		c25.377,52.09,98.243,111.275,30.573,137.05c-25.373,3.51-1.467,28.207-18.333,39.754c-16.867,11.547-34.398-0.725-36.5,28.295
		c-2.102,29.02-23.719,34.736-43.814,32.649c-25.91-2.69-32.73-58.93-10.712-75.409c23.835-17.839-8.128-33.619,3.846-57.97
		c11.974-24.351,24.809-28.389,24.809-28.389l-3.786-23.274C2403.492,843.821,2354.512,844.616,2357.137,817.821z"/>
	<path style="fill:#F99370;" d="M2420.983,885.391c-4.462,17.641-26.005,12.302-21.714-5.381
		C2403.731,862.37,2425.274,867.709,2420.983,885.391z"/>
	<path style="fill:#C16256;" d="M2415.215,888.869c0.384,0.013,0.747-0.223,0.878-0.605c4.44-11.183-1.543-16.12-9.097-13.326
		c-1.098,0.373-0.498,2.089,0.595,1.691c6.479-2.404,10.516,1.717,6.805,11.052C2414.195,888.239,2414.625,888.858,2415.215,888.869
		z"/>
	<path style="fill:#C16256;" d="M2406.895,887.327c1.632-0.158,2.756-6.686,9.693-7.152c0.495-0.016,0.883-0.43,0.868-0.924
		c-0.016-0.495-0.422-0.894-0.924-0.867C2409.63,878.711,2404.196,886.841,2406.895,887.327z"/>
	<path style="fill:#FDFFDE;" d="M2411.892,895.061c-1.22,5.497-9.824,3.454-8.443-2.005
		C2404.67,887.56,2413.274,889.602,2411.892,895.061z"/>
	<path style="fill:#F99370;" d="M2372.115,1205.292c0.111,4.847,12.591,1.554,16.585,3.48c-5.772,5.918-13.3,10.212-13.309,10.267
		c-9.666,3.377-19.497,6.225-29.46,8.63c-11.728,10.69,27.004,0.918,30.583,0.58c0.02,0.047,0.043,0.093,0.064,0.14
		c-9.163,5.571-18.648,10.65-28.498,14.897c-9.493,13.661,30.049-6.404,33.556-7.854c0.018,0.018,0.037,0.035,0.055,0.053
		c-7.732,6.698-16.288,12.455-25.343,17.229c-8.344,14.622,30.236-8.902,33.103-11.493c0.035,0.021,0.07,0.041,0.105,0.061
		c-5.307,6.145-11.397,11.612-17.715,16.724c-5.4,14.493,23.895-9.852,26.541-12.51c3.436-2.135,12.136-5.001,23.215-20.77
		c3.453-4.901-2.767-19.88-8.235-22.065c-6.149-2.458-16.173-1.278-18.867-0.898
		C2389.607,1201.553,2373.35,1199.59,2372.115,1205.292z"/>
	<path style="fill:#10325B;" d="M2317.015,1121.75c74.78,15.8,156.07-15.96,157.13-16.38c-2.8-3.42-4.52-5.28-4.52-5.28
		c-85.14,27.08-150.33,15.2-150.33,15.2S2318.425,1117.57,2317.015,1121.75z"/>
	<path style="fill:#10325B;" d="M2304.175,1394.21c2.79,12.03,4.97,18.32,4.97,18.32c140.94,46.52,238.98-46.42,238.98-46.42
		c-3.24-4.06-6.04-9.56-8.48-16.13c0,0-97.84,81.66-234.9,44.38C2304.555,1394.31,2304.365,1394.26,2304.175,1394.21z"/>
</g>
<g id="_x34_">
	<path style="fill:#F99370;" d="M2012.561,1698.879l72.439-46.237c-1.212-4.635-15.966-19.873-19.382-26.765
		c-2.82-3.84-30.146-59.333-33.144-64.977l-41.589,26.546l40.877,49.233c4.849,5.84,4.856,14.286,0.052,20.159
		c-10.11,13.62-26.939,20.878-28.791,36.846C2003.053,1698.564,2008.45,1701.503,2012.561,1698.879z"/>
	<path style="fill:#1D3F70;" d="M2082.751,1644.273c1.267,2.635,2.108,5.443,2.25,8.37l-73.036,46.618
		c-3.552,2.267-8.354,0.411-9.316-3.691c-2.226-9.601,0.144-27.112,32.686-50.362c0,0,13.63-3.901,30.284-19.33
		C2065.619,1625.878,2077.63,1633.582,2082.751,1644.273z"/>
	<path style="fill:#395B96;" d="M2002.616,1695.422l80.135-51.149c1.267,2.635,2.108,5.443,2.25,8.37l-73.036,46.618
		C2008.367,1701.564,2003.486,1699.605,2002.616,1695.422z"/>
	<path style="fill:#F99370;" d="M1749.73,1700.114l85.938-0.025c1.47-4.559-2.774-25.34-1.947-32.989
		c-0.313-4.754,6.493-66.235,7-72.605l-49.339,0.014l7.986,63.491c0.947,7.531-3.589,14.656-10.797,17.024
		c-15.848,6.046-33.94,3.115-44.089,15.581C1741.884,1694.735,1744.853,1700.115,1749.73,1700.114z"/>
	<path style="fill:#1D3F70;" d="M1838.272,1691.823c-0.349,2.903-1.149,5.723-2.604,8.266l-86.646,0.025
		c-4.213,0.001-7.264-4.146-5.869-8.122c3.286-9.292,14.702-22.78,54.64-24.881c0,0,13.589,4.041,35.927-0.01
		C1833.721,1667.101,1839.705,1680.056,1838.272,1691.823z"/>
	<path style="fill:#395B96;" d="M1743.204,1691.851l95.068-0.028c-0.349,2.903-1.149,5.723-2.604,8.266l-86.646,0.025
		C1744.75,1700.123,1741.688,1695.845,1743.204,1691.851z"/>
	<path style="fill:#1D3F70;" d="M1736.005,1620.08c1.05,10.8,1.82,16.69,1.82,16.69c37.75,19.26,94.35,15.81,131.75,6.79
		c-0.47-3.21-0.92-6.41-1.36-9.59c-0.37-2.71-0.73-5.41-1.08-8.09c0,0,0,0-0.01,0c-26.8-205.4,8.9-348.6,8.9-348.6
		c13.76,98.91,17.22,167.3,88.69,340.55c2.42,5.86,4.91,11.84,7.49,17.95c43.85-6.96,95.74-31.86,128.56-56.73
		c-3.36-5.72-6.58-11.44-9.66-17.15c-92.23-170.46-68.95-334.7-116.43-424.52c0,0-187.83-11.87-190.23-5.13
		C1714.275,1329.56,1729.905,1557.41,1736.005,1620.08z"/>
	<path style="fill:#8E4A35;" d="M1897.556,797.804c0,0,43.457-24.117,70.58,28.256c12.842,24.797,17.691,52.145,35.496,61.076
		c12.546,6.292,19.35,24.071,4.015,44.878c-18.384,24.944,5.569,24.844,4.935,45.994c-0.634,21.15-8.506,44.907-34.642,35.258
		c-26.136-9.649-28.695,12.548-53.773,17.645c-25.078,5.097-48.955-32.174-78.687-27.435c-29.732,4.739-51.175-19.889-49.816-35.302
		c1.359-15.413,27.753-26.522,29.82-41.914c2.067-15.392-8.14-35.782,10.915-54.418
		C1855.454,853.205,1897.556,797.804,1897.556,797.804z"/>
	<path style="fill:#F99370;" d="M1850.231,1018.192c5.479-18.685-1.834-35.793-7.509-53.277
		c-11.764-37.601-37.168-71.647-57.976-103.966c-22.417-39.443-32.268-86.673-40.331-131.84
		c-2.172-14.735-25.085-13.573-25.809,1.209c-3.855,52.529,0.575,104.039,18.929,154.448
		C1779.599,1000.293,1836.088,1061.607,1850.231,1018.192z"/>
	<path style="fill:#F4D4BE;" d="M1718.345,911.83c5.73,21.49,14.64,41.69,24.22,59.32c0,0.01,0.01,0.02,0.02,0.03
		c21.24,39.13,45.72,65.64,45.72,65.64c10.9-7.63,23.7-19.26,34.16-32.62c17.92-22.88,28.98-50.82,11.87-72.31
		c-38.73-48.67-74.68-135.77-88.26-193.83c-14.65,6.86-28.04,1.06-28.05,1.12C1713.235,775.55,1703.285,857.32,1718.345,911.83z"/>
	<path style="fill:#F99370;" d="M1900.234,952.026c19.468-0.391,38.374,9.24,53.76,19.299c33.204,21.206,55.383,53.311,81.12,81.861
		c32.189,31.97,82.198,60.827,123.674,80.444c13.651,5.957,10.367,27.158-4.088,23.984
		c-51.704-10.045-111.396-30.943-155.234-61.865C1898.998,1024.88,1854.629,954.297,1900.234,952.026z"/>
	<path style="fill:#EABFAC;" d="M1742.585,971.18c21.24,39.13,45.72,65.64,45.72,65.64c10.9-7.63,23.7-19.26,34.16-32.62
		l-14.66-21.34c0,0-13.023,15.437-24.107,23.417C1776.604,1011.383,1764.005,1004,1742.585,971.18z"/>
	<path style="fill:#F4D4BE;" d="M1893.465,941.71c4.64,6.84,64.387,158.012,71.896,156.727
		c37.785,42.336,117.502,53.916,162.384,52.773c11.97-16.51,11.74-27.13,11.74-27.13c-43.888-26.26-92.425-57.27-127.43-111.6
		C1963.615,935.64,1893.465,941.71,1893.465,941.71z"/>
	<path style="fill:#EABFAC;" d="M1960.045,1031.74l4.65,65.98c0.22,0.24,0.44,0.48,0.67,0.72c9.84,10.68,21.72,19.21,34.54,26.02
		c5.02,2.67,10.17,5.07,15.41,7.24l0.05,0.02c1.6,0.66,3.21,1.3,4.83,1.91c-9.45-7.01-19.99-16.23-27.31-26.76
		C1981.545,1090.57,1985.055,1062.96,1960.045,1031.74z"/>
	<path style="fill:#EABFAC;" d="M2109.086,1150.926c0,0,11.651,2.386,18.642,0.29c0.01,0.002,0.012-0.008,0.021-0.006
		c11.967-16.505,11.735-27.131,11.735-27.131s-0.01-0.002-0.018-0.014c-0.451-0.367-7.677-6.213-12.722-7.645
		c0,0,3.367,5.099-0.66,8.165c-4.02,3.077-8.364,1.763-8.004,7.797c0.37,6.035,3.146,8.363-1.128,11.383
		C2112.678,1146.795,2110.389,1146.691,2109.086,1150.926z"/>
	<path style="fill:#8E4A35;" d="M1910.402,807.8c0,0-15.091-20.822-39.626-8.785c-24.535,12.037-28.054,64.306-28.054,64.306
		L1910.402,807.8z"/>
	<path style="fill:#F99370;" d="M1857.65,927.061l-0.439,11.79c-7.508,6.287-0.12,18.117,5.935,18.617
		c9.218,0.76,26.958-11.618,30.32-15.759c0,0-0.38-11.31,0.084-16.502L1857.65,927.061z"/>
	<path style="fill:#E57D61;" d="M1899.104,888.671c-0.123,0.615-0.268,1.237-0.447,1.835c-0.798-0.596-4.39,21.753-5.333,38.069
		c-15.731,6.104-32.657,2.07-35.75,1.251c0.833-20.688,3.796-39.41,7.501-51.062
		C1872.424,859.107,1903.444,868.175,1899.104,888.671z"/>
	<path style="fill:#F99370;" d="M1927.884,883.551c-7.109,14.565-17.511,30.257-32.678,36.718l-0.02-0.006
		c-6.117,2.578-12.857,3.356-19.544,2.685c-38.496-0.497-68.142-55.486-30.997-76.872c12.991-6.299,20.177-22.256,31.093-29.129
		c16.94-13.502,42.487-4.79,52.21,13.355C1936.732,846.704,1935.785,865.357,1927.884,883.551z"/>
	<path style="fill:#F9F8F3;" d="M1848.823,878.947l23.193-4.169C1870.153,887.528,1855.079,891.45,1848.823,878.947z"/>
	<path style="fill:#C16256;" d="M1872.291,856.388c-0.595-3.086,4.266-3.948,4.771-0.846
		C1877.657,858.628,1872.795,859.49,1872.291,856.388z"/>
	<path style="fill:#C16256;" d="M1853.792,847.203c-0.595-3.087,4.266-3.948,4.77-0.846
		C1859.157,849.444,1854.296,850.305,1853.792,847.203z"/>
	<path style="fill:#C16256;" d="M1848.457,879.787c0.453,0.366,23.214-4.166,23.722-4.108c0.497-0.089,0.829-0.566,0.739-1.064
		c0.752-2.146-23.851,3.808-24.256,3.43C1847.786,878.17,1847.644,879.47,1848.457,879.787z"/>
	<path style="fill:#C16256;" d="M1853.734,869.108c1.424,0.443,4.403,1.934,4.907-0.029c-0.008-0.507-0.429-0.912-0.931-0.902
		c-3.228,0.049-6.947-2.688-7.111-4.19c-0.058-0.529,0.714-0.801,1.371-0.936c5.667-0.98,16.23-12.881,10.76-11.023
		c-0.06,0.082-6.033,8.184-11.128,9.228C1845.636,863.166,1849.981,867.359,1853.734,869.108z"/>
	<path style="fill:#F4D4BE;" d="M1784.448,1132.247c80.668,40.692,190.228,5.136,190.228,5.136s7.608-38.413,3.664-56.659
		c-8.06-37.282-39.479-132.285-84.873-139.011c0,0-19.673,24.622-38.576,12.169c-7.327-4.827,4.397-16.014,2.067-15.248
		c-11.415,3.754-38.467,29.88-47.129,41.488C1745.91,1065.779,1786.878,1074.757,1784.448,1132.247z"/>
	<path style="fill:#E57D61;" d="M1927.884,883.551c-7.109,14.565-17.511,30.257-32.678,36.718l-0.02-0.006
		c9.227-6.289,19.052-23.641,19.052-23.641l-0.659-9.243c-47.982-33.281-30.483-74.599-30.483-74.599
		C1924.41,798.732,1945.503,850.601,1927.884,883.551z"/>
	<path style="fill:#8E4A35;" d="M1889.9,810.695c0,0-17.04,40.809,25.317,72.521l19.939-4.248
		C1961.723,851.33,1946.083,794.215,1889.9,810.695z"/>
	<path style="fill:#F99370;" d="M1935.268,894.236c-8.708,16.271-29.124,5.051-20.051-11.022
		C1923.924,866.945,1944.34,878.165,1935.268,894.236z"/>
	<path style="fill:#C16256;" d="M1928.552,896.121c4.749-2.69,5.632-10.724,4.141-12.604c-2.636-3.803-9.278-4.189-9.348-2.299
		c0.577,2.074,5.214-0.565,7.767,3.229C1933.809,888.061,1926.924,894.037,1928.552,896.121z"/>
	<path style="fill:#C16256;" d="M1920.732,892.411c1.823,0.446,4.457-5.875,11.56-4.483c0.493,0.115,0.986-0.192,1.1-0.686
		C1929.657,882.136,1917.345,891.783,1920.732,892.411z"/>
	<path style="fill:#F4D4BE;" d="M1923.244,899.357c-0.737,2.566-4.751,1.349-3.939-1.194
		C1920.042,895.596,1924.056,896.813,1923.244,899.357z"/>
	<path style="fill:#EABFAC;" d="M1852.92,987.186c0.561,2.731,3.229,4.491,5.961,3.93c2.731-0.561,4.491-3.229,3.931-5.961
		c-0.561-2.731-3.229-4.491-5.961-3.93C1854.119,981.786,1852.359,984.455,1852.92,987.186z"/>
	<path style="fill:#EABFAC;" d="M1850.469,1005.969c0.561,2.731,3.229,4.491,5.961,3.93c2.731-0.561,4.491-3.229,3.93-5.961
		c-0.561-2.731-3.229-4.491-5.961-3.93C1851.668,1000.568,1849.909,1003.237,1850.469,1005.969z"/>
	<path style="fill:#244C7C;" d="M1976.515,1126.67c0,0-108.994,31.039-192.012-2.671c0,0-5.026,5.38-2.66,15.707
		c0,0,60.188,44.473,197.632,7.533C1979.474,1147.239,1981.927,1135.476,1976.515,1126.67z"/>
	<circle style="fill:#10325B;" cx="1865.844" cy="1151.767" r="21.471"/>
	<path style="fill:#C16256;" d="M1883.215,854.486c0.13,0.031,0.268,0.04,0.409,0.022c0.613-0.08,1.045-0.641,0.966-1.254
		c-0.038-0.292-0.983-7.203-5.864-11.691c-0.454-0.418-1.163-0.389-1.583,0.067c-0.419,0.455-0.389,1.164,0.067,1.583
		c4.268,3.924,5.15,10.267,5.158,10.331C1882.43,854.015,1882.778,854.38,1883.215,854.486z"/>
	<path style="fill:#C16256;" d="M1855.16,840.563c0.094,0.023,0.192,0.034,0.293,0.031l9.512-0.245
		c0.618-0.016,1.107-0.53,1.091-1.149c-0.016-0.618-0.523-1.108-1.149-1.091l-9.512,0.245c-0.618,0.016-1.107,0.53-1.091,1.149
		C1854.318,840.021,1854.679,840.447,1855.16,840.563z"/>
	<path style="fill:#F99370;" d="M1715.399,691.951c-6.987-8.747,5.814-18.547,7.013-5.523l-0.118-0.152
		C1726.037,690.697,1719.013,696.483,1715.399,691.951z"/>
	<path style="fill:#F99370;" d="M1721.23,689.48c-5.832-13.836,11.245-15.087,7.727-4.93c0.072-0.09,0.03-0.16,0.037,0.071
		c0.009,0.215,0.098,0.577,0.195,0.808c0.001,0.008,0.051,0.109-0.018-0.029C1731.89,690.516,1723.799,694.677,1721.23,689.48z"/>
	<path style="fill:#F99370;" d="M1727.88,686.246l-0.695-4.438c-0.981-5.71,8.004-7.129,8.818-1.386c0,0,0.695,4.437,0.695,4.437
		C1737.678,690.57,1728.694,691.989,1727.88,686.246z"/>
	<path style="fill:#F99370;" d="M1744.415,729.109c0,0,9.677-28.985-0.118-45.921l-29.08,5.484c0,0-4.77,24.568,3.126,44.359
		L1744.415,729.109z"/>
	<path style="fill:#F99370;" d="M1747.208,700.661c1.832-5.977-6.877-50.62-15.167-46.194c-3.384,1.648-1.116,5.477-0.271,7.998
		c3.214,9.448,5.06,19.512,4.958,29.491c0.534,4.93-3.433,12.088,2.877,14.474C1743.447,707.862,1747.36,704.639,1747.208,700.661z"
		/>
	<path style="fill:#F99370;" d="M1758.119,680.37c-7.403,9.794-15.135,19.692-23.232,28.84c-6.78,7.888,6.173,17.409,11.669,8.555
		c6.554-11.002,12.279-22.101,17.94-33.511C1766.561,680.298,1760.648,676.741,1758.119,680.37z"/>
	<path style="fill:#E57D61;" d="M1718.177,694.211c4.996,0.678,6.286-5.228,3.075-2.168c-3.575,2.609-4.741-1.12-6.28-0.614
		C1714.098,692.925,1716.999,694.031,1718.177,694.211z"/>
	<path style="fill:#E57D61;" d="M1724.545,692.541c1.858,0.525,6.439-1.851,5.005-3.9c-1.555-0.107-1.666,3.539-5.511,2.41
		c-2.465-0.782-3.076-3.734-3.286-5.997c-0.328-0.91,1.051-3.516-0.164-4.007c-0.358-0.075-0.722,0.158-0.797,0.523
		C1718.842,685.588,1719.637,691.804,1724.545,692.541z"/>
	<path style="fill:#E57D61;" d="M1731.615,690.653c3.328,0.482,6.323-2.57,5.748-5.897l-0.695-4.438
		c-0.125-0.863-1.478-0.655-1.331,0.209c0,0,0.695,4.438,0.695,4.438c0.834,4.857-6.801,6.042-7.486,1.177
		c-0.018-0.086-0.897-3.963-0.194-7.039c0.083-0.363-0.144-0.724-0.507-0.807c-0.365-0.081-0.724,0.144-0.807,0.507
		C1726.427,685.009,1726.463,689.415,1731.615,690.653z"/>
	<path style="fill:#E57D61;" d="M1729.782,713.266c5.014-9.452,18.021-19.558,18.462-19.139c0.883-4.175-14.059,7.445-18.993,18.2
		C1729.068,712.73,1729.345,713.215,1729.782,713.266z"/>
	<path style="fill:#EABFAC;" d="M1914.012,942.756c0,0,1.86,12.175-9.715,15.92s-8.17,16.681-21.617,16.17
		c-13.447-0.511-13.973-13.466-27.266-7.45c-14.34,6.49-20.394-6.507-16.139-13.146c4.255-6.638-9.719-12.66-4.942-22.359
		c0,0,14.95-0.011,22.626,6.748c0,0,0.905,11.602,8.883,13.483c5.239,1.235,19.683-5.08,27.622-10.412
		C1893.466,941.71,1904.833,937.56,1914.012,942.756z"/>
	<path style="fill:#EABFAC;" d="M1715.737,757.424c4.07-1.41,5.622-4.89,7.622-5.63c2.75-1.02,3.64,4.6,8.74,4.98
		c5.11,0.38,6.39-2.93,9.58-6c3.11-2.98,8.601,4.452,8.931,4.822c-3.15-9.97-4.531-17.532-4.531-17.532
		c-14.63,6.83-28.04,1.1-28.04,1.1s0,0-0.01,0.02C1717.958,739.594,1717.047,746.394,1715.737,757.424z"/>
	<path style="fill:#F99370;" d="M2198.915,1128.101c0.287,1.467-0.669,2.889-2.136,3.176l-0.188,0.037
		c-1.192,0.233-2.385,0.43-3.562,0.688c-1.167,0.305-2.349,0.521-3.489,0.892c-2.093,0.574-4.115,1.327-6.092,2.136
		c6.898,4.555,15.168,7.15,15.188,7.202c1.561,0.193,3.142,0.372,4.705,0.538c2.858,0.298,5.728,0.563,8.603,0.78
		c5.75,0.439,11.522,0.721,17.303,0.849l0.01,0c1.35,0.028,2.498,1.059,2.638,2.437c0.152,1.49-0.933,2.822-2.423,2.974
		c-5.857,0.598-11.737,1.04-17.634,1.321c-2.949,0.143-5.902,0.238-8.863,0.297c-1.165,0.021-2.321,0.035-3.479,0.043
		c-0.01,0.05-0.022,0.1-0.032,0.151c3.115,1.074,6.252,2.095,9.407,3.055c3.545,1.086,7.116,2.079,10.707,2.991
		c3.589,0.934,7.206,1.704,10.836,2.436l0.065,0.013c1.347,0.276,2.291,1.534,2.147,2.931c-0.153,1.489-1.484,2.571-2.973,2.418
		c-3.797-0.391-7.598-0.827-11.364-1.429c-3.772-0.58-7.53-1.245-11.267-2.008c-3.682-0.743-7.351-1.556-11.003-2.451
		c-0.014,0.021-0.028,0.042-0.042,0.063c1.139,0.62,2.284,1.234,3.452,1.818c2.636,1.323,5.321,2.584,8.058,3.732
		c2.736,1.15,5.505,2.244,8.321,3.21c2.807,1,5.663,1.851,8.537,2.668l0.06,0.017c1.303,0.369,2.153,1.663,1.935,3.034
		c-0.236,1.478-1.625,2.485-3.104,2.25c-3.073-0.49-6.15-1.023-9.193-1.715c-3.053-0.657-6.076-1.453-9.086-2.317
		c-3.011-0.862-5.989-1.849-8.951-2.919c-1.482-0.533-2.954-1.105-4.426-1.698c-0.666-0.275-1.312-0.544-1.964-0.825
		c-0.03,0.028-0.06,0.055-0.09,0.082c0.64,0.478,1.276,0.959,1.932,1.427c1.959,1.388,3.988,2.715,6.052,4.002
		c2.069,1.282,4.18,2.514,6.325,3.701c2.143,1.19,4.326,2.32,6.526,3.429l0.031,0.015c1.186,0.595,1.785,1.987,1.353,3.282
		c-0.474,1.421-2.011,2.189-3.433,1.715c-2.407-0.803-4.812-1.635-7.197-2.539c-2.386-0.901-4.759-1.858-7.114-2.882
		c-2.353-1.031-4.692-2.116-7.009-3.298c-1.158-0.595-2.313-1.202-3.464-1.854l-1.731-1.003c-0.219-0.134-0.426-0.26-0.635-0.388
		c-2.896-0.39-12.989-2.597-26.466-14.968c-4.417-4.054-1.524-20.014,3.353-23.312c5.486-3.71,15.531-4.688,18.244-4.89
		c1.342-0.481,2.693-0.911,4.051-1.295c2.616-0.678,5.237-1.255,7.88-1.588c1.312-0.222,2.643-0.28,3.955-0.424
		c1.318-0.096,2.637-0.125,3.948-0.187C2197.451,1125.854,2198.654,1126.766,2198.915,1128.101z"/>
	<path style="fill:#10325B;" d="M2091.105,1561.9c0,0-63.33,48.59-126.39,55.93c2.42,5.86,4.91,11.84,7.49,17.95
		c43.85-6.96,95.74-31.86,128.56-56.73C2097.405,1573.33,2094.185,1567.61,2091.105,1561.9z"/>
	<path style="fill:#10325B;" d="M1736.005,1620.08c1.05,10.8,1.82,16.69,1.82,16.69c37.75,19.26,94.35,15.81,131.75,6.79
		c-0.87-5.94-1.68-11.84-2.44-17.68c0,0,0,0-0.01,0C1866.115,1626.18,1801.175,1644.93,1736.005,1620.08z"/>
	<path style="fill:#10325B;" d="M1852.125,1635.44l16.09-1.47c-0.37-2.71-0.73-5.41-1.08-8.09c0,0,0,0-0.01,0
		c-26.8-205.4,8.9-348.6,8.9-348.6c-0.56,2.39-14.2,11.38-21.86,47.63C1846.505,1361.17,1832.715,1519.59,1852.125,1635.44z"/>
</g>
<g id="_x33_">
	<path style="fill:#F99370;" d="M1261.055,667.69l0.773-13.4l-29.148-0.88c0,0-1.069,10.036-2.115,14.309
		C1230.565,667.72,1242.412,678.38,1261.055,667.69z"/>
	<path style="fill:#F99370;" d="M1554.205,666.36c0,0-0.93-6.339-1.378-10.85l-29.561-2.762l0.449,13.582
		C1523.715,666.33,1539.308,675.337,1554.205,666.36z"/>
	<path style="fill:#F99370;" d="M1524.44,1700.236h-85.434c-7.456-0.299-7.402-7.894-6.026-13.788
		c4.704-21.234-3.611-69.995-5.153-91.832c-0.41-3.998,2.732-7.475,6.757-7.475h37.705c4.087,0,7.248,3.578,6.739,7.628
		l-6.858,54.609c-2.631,25.283,23.56,27.389,40.762,30.871c6.758,1.699,13.825,4.324,17.118,9.367
		C1533.124,1694.127,1529.902,1700.236,1524.44,1700.236z"/>
	<path style="fill:#1D3F70;" d="M1429.726,1691.385c0.23,4.184,2.308,8.956,7.16,8.853c0,0,88.619,0,88.619,0
		c4.579,0.006,7.828-4.578,6.201-8.853c-3.44-9.662-15.66-24.063-57.535-26.424c-6.013,0.584-19.723,2.636-39.572-0.057
		C1434.599,1664.904,1427.791,1675.599,1429.726,1691.385z"/>
	<path style="fill:#395B96;" d="M1531.706,1691.385h-101.98c0.375,3.109,1.235,6.129,2.797,8.853h92.982
		c4.517,0,7.753-4.445,6.255-8.701C1531.743,1691.486,1531.725,1691.435,1531.706,1691.385z"/>
	<path style="fill:#F99370;" d="M1332.732,1694.072l-51.911,0.693c0-6.415,0.529-8.741,3.366-13.705
		c10.428-13.844-2.021-75.748-1.661-91.923c-2.417-4.425,45.079-0.949,45.833-1.997c1.073,0.002,1.918,0.915,1.833,1.983
		l-5.618,70.738C1322.054,1673.291,1332.373,1681.411,1332.732,1694.072z"/>
	<path style="fill:#1D3F70;" d="M1287.617,1700.238h37.876c4.764,0,8.612-3.947,8.406-8.701c-0.002-0.051-0.005-0.101-0.007-0.152
		c-0.474-10.402-4.881-26.273-27.333-26.48c-22.53-0.197-26.888,15.949-27.343,26.48c-0.003,0.061-0.005,0.122-0.008,0.183
		C1279.026,1696.31,1282.865,1700.238,1287.617,1700.238z"/>
	<path style="fill:#395B96;" d="M1287.617,1700.238h37.876c4.764,0,8.612-3.947,8.406-8.701l-0.007-0.152h-54.676
		c-0.003,0.061-0.005,0.122-0.008,0.183C1279.026,1696.31,1282.865,1700.238,1287.617,1700.238z"/>
	<path style="fill:#1D3F70;" d="M1273.078,1651.438c0,0,42.702,9.8,64.701-0.73c0,0,0.909-5.251,2.497-14.646
		c9.339-55.19,42.117-298.439,51.811-416.558c0,0,22.563,345.902,27.264,416.558c0.575,8.715,0.888,13.926,0.846,14.646
		c0,0,5.275,1.767,13.057,3.346c13.861,2.813,35.662,5.033,49.764-4.382c0,0,0.543-4.787,1.431-13.61
		c6.372-63.303,41.373-304.835,4.959-502.452c0,0-129.078,11.851-208.55-10.839c0,0-21.669,196.109-7.32,513.291
		C1273.952,1645.213,1273.214,1650.678,1273.078,1651.438z"/>
	<path style="fill:#10325B;" d="M1432.37,1639.821c-4.279-60.184-20.863-338.161-23.643-373.22
		c-3.196-40.317-16.64-47.097-16.64-47.097s27.568,367.712,28.104,385.61c0.001,0.005,0.001,0.015,0.001,0.02
		c0.008,0.279,0.01,45.472,0.004,45.574c0,0,5.276,1.767,13.058,3.346c13.861,2.812,35.662,5.033,49.764-4.382
		c0,0,0.543-4.787,1.431-13.61C1484.449,1636.062,1461.594,1645.99,1432.37,1639.821z"/>
	<path style="fill:#10325B;" d="M1465.646,1643.913c15.647-138.862,11.999-267.652,6.183-351.242
		c-6.303-90.58-16.442-149.108-16.544-149.688l-3.94,0.689c0.101,0.579,10.211,58.949,16.498,149.34
		c5.801,83.409,9.44,211.916-6.171,350.454L1465.646,1643.913z"/>
	<path style="fill:#10325B;" d="M1308.545,1646.018c24.538-251.292,33.64-495.514,33.729-497.951l-3.998-0.146
		c-0.089,2.437-9.186,246.542-33.712,497.709L1308.545,1646.018z"/>
	<path style="fill:#3A72AA;" d="M1421.315,874.02l58.38,98.53c28.67-31.67,47.97-65.42,60.71-98.5
		c33.26-86.3,21.96-168.09,16.25-196.83c-1.39-7.01-2.45-10.86-2.45-10.86c-13.58,7.15-30.49-0.03-30.49-0.03
		c0.03,3.5-0.01,6.95-0.12,10.34C1519.815,794.04,1434.555,849.87,1421.315,874.02z"/>
	<path style="fill:#F99370;" d="M1405.544,879.472c2.104-18.292-0.774-44.749-3.32-55.556c-4.606-21.421-38.618-13.131-32.966,7.925
		c1.097-0.689,4.607,38.129,2.184,48.904C1339.524,890.309,1435.519,921.756,1405.544,879.472z"/>
	<path style="fill:#E57D61;" d="M1368.932,830.075c0.04,0.247,0.069,0.503,0.119,0.75c0.059,0.345,0.128,0.681,0.207,1.017
		c0.791-0.523,3.004,20.894,3.024,36.438c14.625,6.642,30.93,3.721,33.914,3.109c0.652-16.433-1.907-36.803-3.241-44.423
		c-0.396-1.786-0.682-2.833-0.731-3.05c-0.119-0.484-0.257-0.957-0.415-1.421c-1.63-4.875-5.326-8.577-9.852-10.363
		c-0.01,0-0.01,0-0.01,0c-3.142-1.234-6.67-1.54-10.198-0.691c-3.488,0.849-6.463,2.714-8.676,5.211
		c-0.099,0.099-0.188,0.207-0.277,0.306C1369.812,820.502,1368.29,825.229,1368.932,830.075z"/>
	<path style="fill:#10325B;" d="M1273.078,1651.438c0,0,42.702,9.8,64.701-0.73c0,0,0.909-5.251,2.497-14.646
		c0,0-29.102,7.965-66.738,0C1273.371,1645.22,1273.214,1650.678,1273.078,1651.438z"/>
	<path style="fill:#1D3F70;" d="M1426.569,790.462c0,0-3.246-18.019-10.912-29.559l-9.51,6.744L1426.569,790.462z"/>
	<path style="fill:#F99370;" d="M1435.456,843.282c-10.252,14.471-28.637,21.095-44.323,20.292
		c-4.884-0.177-9.654-1.101-14.067-2.945l-0.006,0.002c-1.492-0.622-2.924-1.334-4.314-2.15l-0.018,0.005
		c-67.11-48.689-4.216-156.457,45.004-79.325C1433.609,800.552,1456.676,809.652,1435.456,843.282z"/>
	<path style="fill:#C16256;" d="M1402.963,800.245c0.395-1.232-0.284-2.549-1.517-2.943c-1.233-0.394-2.552,0.285-2.947,1.517
		c-0.395,1.232,0.284,2.549,1.517,2.943C1401.249,802.156,1402.568,801.477,1402.963,800.245z"/>
	<path style="fill:#C16256;" d="M1421.887,793.832c0.395-1.231-0.284-2.549-1.516-2.943c-1.233-0.394-2.552,0.286-2.947,1.517
		c-0.395,1.232,0.284,2.549,1.517,2.943C1420.172,795.743,1421.492,795.064,1421.887,793.832z"/>
	<path style="fill:#C16256;" d="M1419.103,814.824c-1.329,0.381-2.725,0.53-3.955,0.346c-0.485-0.072-0.818-0.525-0.745-1.007
		c0.072-0.487,0.533-0.813,1.009-0.744c3.086,0.463,7.005-1.677,7.361-3.098c0.124-0.5-0.579-0.86-1.191-1.073
		c-5.398-1.881-10.245-10.727-10.448-11.102c-0.233-0.431-0.075-0.968,0.357-1.202c0.446-0.243,0.97-0.072,1.203,0.356
		c0.047,0.085,4.723,8.617,9.473,10.273c2.59,0.903,2.49,2.52,2.328,3.174C1424.071,812.451,1421.71,814.077,1419.103,814.824z"/>
	<path style="fill:#E57D61;" d="M1414.122,773.862c-13.618-4.572-35.387,5.144-46.57,6.871c0,0,5.477,18.711-11.591,35.448
		c1.224,17.824-0.419,25.96,21.105,44.447l-0.006,0.002c-1.492-0.622-2.924-1.334-4.314-2.15l-0.018,0.005
		C1308.192,812.148,1365.168,705.891,1414.122,773.862z"/>
	<path style="fill:#1D3F70;" d="M1417.421,734.266c-9.507-13.023-32.116-17.269-47.701,3.276
		c-11.998,15.818-27.345,18.204-24.72,32.382c-26.376,17.558-7.144,46.622-7.144,46.622l13.998-4.009
		c14.161-15.844,10.514-35.155,10.514-35.155l-0.004-0.002c3.665-0.412,7.469-1.191,10.718-2.608
		c10.069-4.392,25.403-8.217,37.959-5.782C1423.596,771.424,1428.047,748.822,1417.421,734.266z"/>
	<path style="fill:#F99370;" d="M1337.693,828.382c2.734,7.078,9.573,11.031,15.275,8.83c5.702-2.201,8.108-9.724,5.373-16.802
		c-2.734-7.078-9.574-11.031-15.276-8.83C1337.364,813.781,1334.958,821.304,1337.693,828.382z"/>
	<path style="fill:#C16256;" d="M1350.128,816.396c-0.243-0.051-5.994-1.261-8.579,2.049c-0.659,0.842-1.018,1.895-1.117,3.127
		c0,0.003,0,0.005,0,0.008c-0.009,0.115-0.032,0.221-0.036,0.339c0,0.002-0.001,0.004-0.001,0.005c0,0.001,0.001,0.001,0,0.001
		c-0.079,2.278,0.736,5.172,2.451,8.665c0.193,0.389,0.635,0.577,1.042,0.461c0.049-0.014,0.097-0.034,0.147-0.056
		c0.439-0.216,0.622-0.749,0.406-1.187c-1.392-2.831-2.132-5.197-2.247-7.055c5.192,0.083,8.64,5.321,8.675,5.377
		c0.216,0.34,0.626,0.484,0.995,0.379c0.078-0.022,0.155-0.058,0.229-0.105c0.416-0.26,0.538-0.806,0.278-1.221
		c-0.168-0.262-3.945-6.128-10.046-6.259c0.128-0.53,0.322-1.003,0.62-1.385c1.899-2.433,6.763-1.42,6.808-1.41
		c0.485,0.1,0.949-0.204,1.055-0.682C1350.909,816.971,1350.606,816.501,1350.128,816.396z"/>
	<path style="fill:#F4D4BE;" d="M1489.408,1133.609c0,0-2.391,6.921-19.753,15.779c-17.362,8.858-64.087,15.383-64.087,15.383
		s-5.885-4.416-9.445-11.465c0,0-2.066,6.997-8.948,11.465c0,0-51.656,1.635-107.652-31.161c0,0-3.633-2.158,1.335-10.839
		L1489.408,1133.609z"/>
	<path style="fill:#FDFFDE;" d="M1360.559,829.62l-8.022-5.011c-0.04-0.354-0.11-0.709-0.251-1.056
		c-0.828-2.037-3.153-3.018-5.193-2.189c-2.04,0.828-3.023,3.151-2.195,5.188c0.805,1.982,3.024,2.949,5.023,2.24l8.018,5.009
		c0.617,0.385,1.341,0.465,1.989,0.279c0.567-0.162,1.077-0.525,1.413-1.063C1362.063,831.863,1361.714,830.341,1360.559,829.62z"/>
	<path style="fill:#3A72AA;" d="M1489.408,1133.609c0,0-110.422,34.736-208.55-10.839c0,0-8.731-14.969,11.184-84.449
		c7.309-25.501,3.587-61.826,5.58-74.426c8.265-52.248,47.619-81.096,65.838-88.512l8.125,4.089
		c7.405,17.404,21.086,18.847,28.375,15.384c8.738-4.152,5.875-14.284,5.607-15.365c12.172,3.736,15.749-5.47,15.749-5.47
		c19.773,16.51,53.491,66.698,60.16,106.524C1487.573,1016.964,1495.337,1096.437,1489.408,1133.609z"/>
	<path style="fill:#A523A2;" d="M1545.778,931.823c-0.45,0.33-0.97,0.77-1.58,1.34
		C1544.728,932.723,1545.248,932.283,1545.778,931.823z"/>
	<path style="fill:#A523A2;" d="M1241.978,913.903c0.29,0.4,0.58,0.8,0.89,1.2C1242.578,914.663,1242.278,914.263,1241.978,913.903z
		"/>
	<path style="fill:#F4D4BE;" d="M1421.315,874.021c0,0,4.956,25.941-10.288,34.111c0,0-7.244-0.851-12.639-7.156
		c0,0-2.576,6.135-10.25,8.518c0,0-25.347-7.153-24.678-34.111c0,0,4.067,0,8.125,4.089c0,0,9.049,10.788,23.688,10.618
		c9.537-0.111,10.294-10.599,10.294-10.599S1410.557,875.089,1421.315,874.021z"/>
	<path style="fill:#C16256;" d="M1411.493,828.563c-1.581-0.628-2.919-1.622-3.767-2.799c-0.919-1.277-1.169-2.626-0.703-3.799
		c0.929-2.337,4.345-3.1,7.777-1.736c3.434,1.363,5.396,4.261,4.47,6.598l0,0c-0.466,1.173-1.573,1.983-3.117,2.283
		c-0.423,0.082-0.866,0.122-1.322,0.122C1413.752,829.231,1412.604,829.004,1411.493,828.563z M1417.881,826.275
		c0.598-1.507-1.065-3.64-3.632-4.659c-2.567-1.019-5.24-0.607-5.838,0.899c-0.271,0.683-0.084,1.527,0.527,2.376
		c0.683,0.949,1.785,1.759,3.104,2.283c1.319,0.523,2.678,0.688,3.825,0.468C1416.895,827.443,1417.61,826.958,1417.881,826.275
		L1417.881,826.275z"/>
	<path style="fill:#C16256;" d="M1409.592,785.534c0.338,0,0.672-0.152,0.892-0.441c2.449-3.214,7.421-0.665,7.471-0.639
		c0.548,0.287,1.224,0.075,1.512-0.473c0.287-0.548,0.075-1.225-0.473-1.512c-2.306-1.207-7.426-2.495-10.291,1.267
		c-0.375,0.492-0.28,1.195,0.212,1.57C1409.117,785.459,1409.356,785.534,1409.592,785.534z"/>
	<path style="fill:#C16256;" d="M1392.244,794.24c0.522,0,0.988-0.366,1.097-0.897c0.405-1.99,1.265-3.418,2.556-4.242
		c2.024-1.294,4.552-0.742,4.577-0.736c0.599,0.141,1.206-0.229,1.349-0.831c0.144-0.602-0.229-1.206-0.831-1.349
		c-0.139-0.032-3.451-0.792-6.301,1.028c-1.822,1.164-3.015,3.076-3.545,5.684c-0.123,0.606,0.268,1.198,0.874,1.321
		C1392.095,794.232,1392.17,794.24,1392.244,794.24z"/>
	<path style="fill:#F99370;" d="M1551.595,619.217c6.361-9.211-7.09-18.098-7.381-5.022l0.107-0.16
		C1540.896,618.706,1548.306,623.99,1551.595,619.217z"/>
	<path style="fill:#F99370;" d="M1545.607,617.158c4.855-14.208-12.268-14.268-8.052-4.38c-0.078-0.085-0.041-0.157-0.032,0.073
		c0.006,0.215-0.057,0.582-0.138,0.82c0,0.008-0.043,0.112,0.016-0.031C1535.045,618.933,1543.406,622.521,1545.607,617.158z"/>
	<path style="fill:#F99370;" d="M1538.748,614.395l0.384-4.475c0.581-5.764-8.48-6.555-8.893-0.769c0,0-0.385,4.475-0.385,4.475
		C1529.274,619.389,1538.336,620.18,1538.748,614.395z"/>
	<path style="fill:#F99370;" d="M1525.235,658.304c0,0-11.67-28.242-3.078-45.818l29.391,3.447c0,0,6.468,24.176-0.032,44.469
		L1525.235,658.304z"/>
	<path style="fill:#F99370;" d="M1520.469,630.12c-2.244-5.835,3.338-50.976,11.916-47.137c3.49,1.408,1.494,5.386,0.827,7.959
		c-2.548,9.648-3.69,19.817-2.894,29.764c-0.189,4.955,4.266,11.82-1.863,14.639C1524.723,637.041,1520.595,634.098,1520.469,630.12
		z"/>
	<path style="fill:#F99370;" d="M1508.174,610.637c8.066,9.256,16.468,18.591,25.182,27.153c7.313,7.397-4.947,17.796-11.046,9.346
		c-7.303-10.519-13.787-21.193-20.229-32.182C1499.747,611.153,1505.398,607.193,1508.174,610.637z"/>
	<path style="fill:#E57D61;" d="M1548.981,621.665c-4.937,1.024-6.635-4.778-3.218-1.948c3.748,2.354,4.651-1.447,6.222-1.049
		C1552.961,620.098,1550.144,621.404,1548.981,621.665z"/>
	<path style="fill:#E57D61;" d="M1542.512,620.442c-1.817,0.653-6.552-1.398-5.265-3.542c1.544-0.214,1.908,3.415,5.665,2.021
		c2.405-0.951,2.809-3.939,2.861-6.211c0.264-0.931-1.293-3.434-0.115-4.009c0.352-0.1,0.731,0.108,0.832,0.466
		C1547.719,613.109,1547.358,619.366,1542.512,620.442z"/>
	<path style="fill:#E57D61;" d="M1535.328,619.05c-3.286,0.713-6.486-2.124-6.144-5.483c0,0,0.384-4.475,0.384-4.475
		c0.064-0.87,1.429-0.756,1.343,0.116c0,0-0.384,4.475-0.384,4.475c-0.495,4.903,7.205,5.555,7.55,0.654
		c0.012-0.087,0.619-4.016-0.296-7.036c-0.108-0.356,0.094-0.732,0.45-0.84c0.358-0.106,0.732,0.093,0.841,0.45
		C1540.112,613.06,1540.382,617.458,1535.328,619.05z"/>
	<path style="fill:#E57D61;" d="M1538.73,641.481c-5.66-9.08-19.338-18.257-19.749-17.808c-1.172-4.103,14.543,6.448,20.213,16.835
		C1539.405,640.897,1539.163,641.401,1538.73,641.481z"/>
	<path style="fill:#3A72AA;" d="M1237.635,856.18v0.01c11.24,35.66,29.6,72.75,58.76,107.71c2.79,3.36,5.69,6.69,8.69,10.01
		l58.38-98.53c-13.23-24.13-98.36-79.9-102.28-197.07c-0.12-3.49-0.16-7.03-0.13-10.62c0,0-16.9,7.18-30.49,0.03
		c0,0-0.89,3.25-2.12,9.21C1223.285,702.09,1212.225,775.5,1237.635,856.18z"/>
	<path style="fill:#F99370;" d="M1235.462,617.975c-5.998-9.452,7.79-17.808,7.571-4.73l-0.101-0.164
		C1246.172,617.881,1238.563,622.872,1235.462,617.975z"/>
	<path style="fill:#F99370;" d="M1241.526,616.15c-4.298-14.387,12.814-13.779,8.216-4.063c0.081-0.081,0.047-0.156,0.03,0.074
		c-0.014,0.214,0.034,0.584,0.106,0.824c0,0.008,0.039,0.114-0.015-0.031C1252.01,618.335,1243.516,621.595,1241.526,616.15z"/>
	<path style="fill:#F99370;" d="M1248.487,613.656l-0.21-4.487c-0.356-5.782,8.729-6.219,8.916-0.422c0,0,0.21,4.487,0.21,4.487
		C1257.759,619.016,1248.674,619.453,1248.487,613.656z"/>
	<path style="fill:#F99370;" d="M1260.279,658.059c0,0,12.761-27.766,4.86-45.664l-29.503,2.3c0,0-7.405,23.906-1.7,44.437
		L1260.279,658.059z"/>
	<path style="fill:#F99370;" d="M1266.139,630.082c2.469-5.743-1.35-51.067-10.071-47.566c-3.543,1.271-1.703,5.323-1.137,7.921
		c2.171,9.74,2.915,19.945,1.732,29.854c-0.004,4.959-4.723,11.645,1.291,14.701
		C1261.619,636.832,1265.859,634.052,1266.139,630.082z"/>
	<path style="fill:#F99370;" d="M1279.184,611.092c-8.42,8.934-17.18,17.935-26.221,26.152c-7.595,7.106,4.25,17.975,10.673,9.769
		c7.708-10.227,14.602-20.64,21.467-31.369C1287.584,611.936,1282.092,607.759,1279.184,611.092z"/>
	<path style="fill:#E57D61;" d="M1237.978,620.523c4.893,1.215,6.816-4.516,3.292-1.821c-3.837,2.206-4.591-1.627-6.177-1.291
		C1234.062,618.802,1236.826,620.216,1237.978,620.523z"/>
	<path style="fill:#E57D61;" d="M1244.49,619.553c1.79,0.724,6.602-1.142,5.399-3.334c-1.534-0.274-2.039,3.338-5.739,1.799
		c-2.366-1.044-2.653-4.045-2.616-6.318c-0.228-0.941,1.426-3.381,0.271-4.001c-0.348-0.114-0.734,0.079-0.849,0.433
		C1239.573,612.022,1239.69,618.288,1244.49,619.553z"/>
	<path style="fill:#E57D61;" d="M1251.723,618.442c3.256,0.84,6.564-1.87,6.353-5.24l-0.21-4.487
		c-0.03-0.871-1.398-0.811-1.346,0.063c0,0,0.21,4.487,0.21,4.487c0.303,4.919-7.416,5.27-7.57,0.359
		c-0.009-0.088-0.462-4.037,0.57-7.019c0.122-0.352-0.065-0.735-0.417-0.857c-0.354-0.12-0.736,0.065-0.857,0.417
		C1247.176,612.269,1246.735,616.653,1251.723,618.442z"/>
	<path style="fill:#E57D61;" d="M1247.449,640.723c6.009-8.852,20.035-17.49,20.428-17.025c1.331-4.055-14.783,5.877-20.853,16.034
		C1246.798,640.113,1247.02,640.626,1247.449,640.723z"/>
	<path style="fill:#23659B;" d="M1465.955,936.14c0.31,0.53,10.27,17.4,13.74,36.41c28.67-31.67,47.97-65.42,60.71-98.5
		c-0.72,1.31-24.05,43.27-41.64,56.75C1481.195,944.25,1466.455,936.41,1465.955,936.14z"/>
	<path style="fill:#23659B;" d="M1237.635,856.19c11.24,35.66,29.6,72.75,58.76,107.71h1.23c0.71-19.92,15-41.75,15-41.75
		C1282.745,944.24,1237.635,856.19,1237.635,856.19z"/>
	<path style="fill:#23659B;" d="M1523.715,666.33c0.03,3.5-0.01,6.95-0.12,10.34c17.81,9.7,33.06,0.55,33.06,0.55
		c-1.39-7.01-2.45-10.86-2.45-10.86C1540.625,673.51,1523.715,666.33,1523.715,666.33z"/>
	<path style="fill:#23659B;" d="M1228.445,676.93c13.73,12.02,32.74,1.38,32.74,1.38c-0.12-3.49-0.16-7.03-0.13-10.62
		c0,0-16.9,7.18-30.49,0.03C1230.565,667.72,1229.675,670.97,1228.445,676.93z"/>
</g>
<g id="_x32__1_">
	<path style="fill:#1D3F70;" d="M908.974,872.861c24.912-47.758,62.838-43.372,62.838-43.372
		c0.003,0.002,32.971-16.263,62.002,20.902c51.841,66.368-18.333,142.142-66.581,173.404
		c-26.639,17.26-145.864,23.482-146.089-36.922C820.96,937.34,879.868,928.66,908.974,872.861z"/>
	<path style="fill:#F99370;" d="M998.6,1040.141c-3.613-19.134,5.349-35.439,12.718-52.279c15.409-36.26,44.041-67.64,67.93-97.753
		c26.192-37.044,40.645-83.075,53.115-127.229c3.612-14.45,26.299-11.037,25.565,3.744c-1.335,52.654-10.815,103.477-34.043,151.834
		C1070.652,1029.283,1008.4,1084.738,998.6,1040.141z"/>
	<path style="fill:#F4D4BE;" d="M1027.605,1028.95c6.73,10.59,14.81,20.36,22.65,28.24c2.77,2.78,5.5,5.33,8.14,7.59
		c0,0,25.94-27.59,42.01-47.45c0.02-0.02,0.04-0.04,0.05-0.06c0.28-0.34,0.55-0.68,0.82-1.02c0.01-0.01,0.02-0.03,0.03-0.04
		c3.81-4.74,7-9,9.05-12.25c13.4-21.24,41.77-93.85,20.01-98.45c-17.91-3.78-30.99-16.44-44.9-24.71
		c-19.72,1.42-26.7,41.77-62.55,75.02C1002.775,974.5,1012.025,1004.42,1027.605,1028.95z"/>
	<path style="fill:#F99370;" d="M1164.896,728.76c7.814-8.016-3.959-19.029-6.435-6.187l0.132-0.14
		C1154.434,726.464,1160.854,732.914,1164.896,728.76z"/>
	<path style="fill:#F99370;" d="M1159.338,725.727c7.166-13.195-9.705-16.12-7.204-5.667c-0.063-0.096-0.014-0.162-0.044,0.067
		c-0.03,0.213-0.154,0.564-0.273,0.785c-0.002,0.008-0.062,0.103,0.021-0.027C1148.628,725.708,1156.269,730.646,1159.338,725.727z"
		/>
	<path style="fill:#F99370;" d="M1153.038,721.854l1.128-4.348c1.538-5.586-7.263-7.882-8.638-2.247c0,0-1.128,4.347-1.128,4.347
		C1142.862,725.192,1151.663,727.489,1153.038,721.854z"/>
	<path style="fill:#F99370;" d="M1132.364,762.88c0,0-6.776-29.797,4.638-45.686l28.399,8.32c0,0,2.328,24.918-7.478,43.836
		L1132.364,762.88z"/>
	<path style="fill:#F99370;" d="M1132.385,734.297c-1.235-6.129,11.827-49.697,19.641-44.476c3.205,1.973,0.571,5.56-0.517,7.986
		c-4.128,9.085-6.956,18.919-7.837,28.859c-1.017,4.853,2.226,12.367-4.288,14.121
		C1135.419,741.832,1131.842,738.24,1132.385,734.297z"/>
	<path style="fill:#F99370;" d="M1123.525,713.029c6.402,10.476,13.122,21.086,20.28,30.987c5.971,8.517-7.858,16.716-12.455,7.364
		c-5.439-11.594-10.043-23.203-14.554-35.115C1115.131,712.127,1121.365,709.169,1123.525,713.029z"/>
	<path style="fill:#E57D61;" d="M1161.909,730.736c-5.039,0.183-5.741-5.822-2.846-2.46c3.301,2.948,4.828-0.648,6.31,0.007
		C1166.096,729.857,1163.1,730.673,1161.909,730.736z"/>
	<path style="fill:#E57D61;" d="M1155.737,728.447c-1.901,0.34-6.226-2.476-4.597-4.374c1.558,0.047,1.309,3.686,5.247,2.941
		c2.53-0.535,3.428-3.413,3.86-5.645c0.416-0.874-0.7-3.602,0.558-3.972c0.363-0.04,0.703,0.229,0.742,0.599
		C1162.098,722.089,1160.694,728.197,1155.737,728.447z"/>
	<path style="fill:#E57D61;" d="M1148.887,725.872c-3.359,0.152-6.039-3.18-5.139-6.434c0,0,1.128-4.348,1.128-4.348
		c0.209-0.846,1.535-0.506,1.304,0.339c0,0-1.128,4.348-1.128,4.348c-1.309,4.751,6.173,6.683,7.334,1.909
		c0.026-0.084,1.282-3.856,0.886-6.986c-0.047-0.369,0.215-0.706,0.584-0.753c0.371-0.045,0.707,0.215,0.753,0.584
		C1154.606,720.766,1154.136,725.148,1148.887,725.872z"/>
	<path style="fill:#E57D61;" d="M1148.485,748.555c-4.059-9.899-16.008-21.237-16.488-20.864
		c-0.468-4.242,13.258,8.793,17.108,19.982C1149.248,748.092,1148.925,748.548,1148.485,748.555z"/>
	<path style="fill:#EABFAC;" d="M1047.065,1011.65l3.19,45.54c2.77,2.78,5.5,5.33,8.14,7.59c0,0,25.94-27.59,42.01-47.45
		c-6.04,6.98-24.27,19.48-30.22,14.54C1063.915,1026.65,1047.065,1011.65,1047.065,1011.65z"/>
	<path style="fill:#F99370;" d="M1008.087,950.392l-0.232,11.796c0,0,9.239,63.976,0.079,69.436
		c-8.109,4.834-33.205-64.164-36.438-68.643c0,0,1.022-11.27,0.854-16.48L1008.087,950.392z"/>
	<path style="fill:#F99370;" d="M682.458,1555.997l-13.775-84.826c4.264-2.183,25.457-1.332,32.873-3.375
		c4.743-0.455,64.333-17.044,70.539-18.568l7.909,48.701l-63.949,2.313c-7.585,0.274-13.89,5.896-15.069,13.391
		c-3.423,16.613,2.376,34-8.299,46.018C689.027,1562.877,683.24,1560.811,682.458,1555.997z"/>
	<path style="fill:#1D3F70;" d="M676.424,1467.272c-2.809,0.81-5.464,2.053-7.741,3.897l13.888,85.526
		c0.675,4.159,5.258,6.504,8.959,4.488c8.644-4.736,20.124-18.169,15.785-57.927c0,0-6.171-12.764-5.759-35.462
		C701.556,1467.794,687.809,1463.969,676.424,1467.272z"/>
	<path style="fill:#395B96;" d="M691.662,1561.111l-15.238-93.839c-2.809,0.81-5.464,2.053-7.741,3.897l13.888,85.526
		C683.25,1560.913,687.963,1563.249,691.662,1561.111z"/>
	<path style="fill:#F99370;" d="M1061.16,1700.229l-85.832-0.942c-1.417-4.589,3.038-25.29,2.297-32.956
		c-0.02-3.224-0.847-20.88-1.143-24.098l6.425-48.429l37.837,0.415l-8.66,63.382c-1.027,7.518,3.435,14.689,10.62,17.133
		c15.77,6.192,33.774,3.499,43.868,15.938C1069.192,1694.852,1066.093,1700.283,1061.16,1700.229z"/>
	<path style="fill:#1D3F70;" d="M972.809,1690.996c0.318,2.905,1.089,5.733,2.517,8.291l86.668,0.951
		c4.214,0.046,7.31-4.066,5.956-8.056c-3.189-9.324-14.465-22.929-54.391-25.456c0,0-13.636,3.895-35.936-0.394
		C977.623,1666.332,971.501,1679.218,972.809,1690.996z"/>
	<path style="fill:#395B96;" d="M1067.901,1692.04l-95.092-1.044c0.318,2.905,1.089,5.733,2.517,8.291l86.668,0.951
		C1066.267,1700.291,1069.375,1696.049,1067.901,1692.04z"/>
	<path style="fill:#E57D61;" d="M968.882,909.709c0.088,0.621,0.197,1.25,0.342,1.857c0.831-0.55,3.146,21.968,3.161,38.31
		c15.359,6.988,32.487,3.923,35.622,3.28c0.344-20.702-1.551-39.562-4.588-51.406C997.199,881.708,965.713,888.999,968.882,909.709z
		"/>
	<path style="fill:#F99370;" d="M942.874,899.2c4.512,15.567,12.075,32.807,25.912,41.769l0.021-0.003
		c5.586,3.586,12.092,5.507,18.796,5.99c38.013,6.098,76.633-43.005,43.696-70.432c-11.721-8.429-16.07-25.381-25.649-34.021
		c-14.379-16.203-41.04-11.991-53.725,4.222C940.463,861.383,938.204,879.922,942.874,899.2z"/>
	<path style="fill:#F9F8F3;" d="M1017.288,906.497l-14.142-2.105C1004.509,912.091,1013.722,914.194,1017.288,906.497z"/>
	<path style="fill:#C16256;" d="M1002.296,881.953c1.115-2.939-3.528-4.62-4.555-1.65
		C996.626,883.242,1001.268,884.923,1002.296,881.953z"/>
	<path style="fill:#C16256;" d="M1022.094,876.07c1.115-2.939-3.528-4.62-4.555-1.65
		C1016.424,877.359,1021.067,879.04,1022.094,876.07z"/>
	<path style="fill:#C16256;" d="M1017.525,907c-0.268,0.23-14.155-2.103-14.461-2.058c-0.303-0.045-0.513-0.328-0.468-0.632
		c-0.495-1.288,14.534,1.874,14.773,1.637C1017.902,906.007,1018.012,906.793,1017.525,907z"/>
	<path style="fill:#1D3F70;" d="M715.605,1459.87c0,0,0,24.17,6.58,47.22c5.61-0.47,11.12-0.93,16.51-1.41
		c152.88-13.38,217.73-31.55,243.3-227.01c0,0,42.52,141.03-11.24,345.78h-0.01c-1.56,6-3.18,11.91-4.91,17.93
		c0,0,21.15,17.29,50.37,11.62c36.44-69.25,114.96-255.31,45.54-473.37c-41.38-47.87-140.54-73.36-170.22-23.43
		c-49.53,83.35,39.83,239.38-158.86,298.05C727.195,1456.87,721.515,1458.41,715.605,1459.87z"/>
	<path style="fill:#C16256;" d="M1018.402,897.661c-1.479,0.193-4.669,1.151-4.83-0.869c0.094-0.498,0.579-0.825,1.072-0.73
		c3.172,0.601,7.304-1.459,7.724-2.911c0.148-0.512-0.566-0.912-1.191-1.157c-5.415-1.936-13.786-15.469-8.715-12.702
		c0.045,0.091,4.543,9.096,9.384,10.996C1027.397,893.192,1022.399,896.58,1018.402,897.661z"/>
	<path style="fill:#E57D61;" d="M942.874,899.2c4.512,15.567,12.075,32.807,25.912,41.769l0.021-0.003
		c-8.014-7.776-14.724-26.553-14.724-26.553l2.231-8.993c52.97-24.578,42.801-68.282,42.801-68.282
		C960.814,816.228,931.154,863.721,942.874,899.2z"/>
	<path style="fill:#1D3F70;" d="M992.767,833.92c0,0,9.804,43.124-37.355,67.118l-18.917-7.598
		C915.049,861.663,940.234,808.067,992.767,833.92z"/>
	<path style="fill:#1D3F70;" d="M933.503,827.553c16.554,40.178,63.441,21.683,48.1-18.974
		C965.049,768.402,918.162,786.897,933.503,827.553z"/>
	<path style="fill:#F99370;" d="M933.771,908.464c5.794,17.521,27.83,9.96,21.641-7.428
		C949.618,883.517,927.583,891.077,933.771,908.464z"/>
	<path style="fill:#C16256;" d="M940.065,911.471c-4.219-3.463-3.713-11.53-1.923-13.127c3.248-3.296,9.858-2.54,9.603-0.666
		c-0.924,1.945-5.04-1.449-8.204,1.852C936.265,902.63,942.025,909.696,940.065,911.471z"/>
	<path style="fill:#C16256;" d="M948.404,909.154c-1.873,0.128-3.386-6.551-10.622-6.396c-0.506,0.028-0.939-0.358-0.967-0.864
		C941.369,897.503,951.849,909.115,948.404,909.154z"/>
	<path style="fill:#F4D4BE;" d="M948.145,915.005c0.287,2.654,4.45,2.142,4.085-0.502
		C951.943,911.848,947.78,912.36,948.145,915.005z"/>
	<path style="fill:#10325B;" d="M965.838,1642.377c0,0,21.144,17.289,50.371,11.623c0,0,3.254-5.345,8.418-15.303
		c0,0-35.093,3.299-53.869-14.25h-0.015C969.214,1630.342,967.579,1636.314,965.838,1642.377z"/>
	<path style="fill:#10325B;" d="M1005.043,1647.797c26.232-61.875,43.963-124.796,52.697-187.015
		c6.99-49.79,8.269-99.246,3.799-146.992c-7.616-81.364-29.636-130.277-29.856-130.763l-3.639,1.663
		c0.22,0.479,22,48.918,29.531,129.671c6.95,74.518,2.839,192.584-56.216,331.875L1005.043,1647.797z"/>
	<path style="fill:#10325B;" d="M728.804,1499.003c58.567-5.639,102.255-15.701,133.56-30.764
		c31.274-15.049,51.59-35.182,63.936-63.361c30.791-70.285,29.711-226.232,29.696-227.8l-4,0.037
		c0.015,1.559,1.088,156.656-29.36,226.157c-23.732,54.173-80,80.754-194.214,91.748L728.804,1499.003z"/>
	<path style="fill:#F4D4BE;" d="M888.902,1161.94c47.015,22.53,117.847,37.044,172.838,18.685c0,0.001,3.565-17.909,0.383-29.321
		c-18.372-65.88,36.152-74.696-13.234-137.369c-12.747-16.176-32.961-36.248-40.361-49.978c0,0,0.067,61.977-9.651,61.604
		c-13.307-0.511-26.845-71.183-26.845-71.183c-6.03,0.281-50.517,6.756-76.804,146.849
		C892.578,1115.438,873.923,1145.873,888.902,1161.94z"/>
	<path style="fill:#C16256;" d="M991.622,877.013c0.39-0.042,0.746-0.288,0.911-0.675c2.707-6.351,7.116-8.083,7.16-8.1
		c0.577-0.218,0.871-0.862,0.656-1.439c-0.215-0.578-0.851-0.877-1.433-0.661c-0.216,0.079-5.335,2.027-8.445,9.323
		c-0.242,0.569,0.023,1.227,0.591,1.469C991.246,877.007,991.437,877.033,991.622,877.013z"/>
	<path style="fill:#C16256;" d="M1020.16,866.63c0.459-0.05,0.859-0.382,0.971-0.857c0.141-0.601-0.229-1.203-0.83-1.346
		c-0.131-0.031-3.272-0.755-10.604-0.637c-0.629,0.008-1.112,0.519-1.102,1.138c0.01,0.618,0.519,1.112,1.138,1.102
		c6.995-0.112,10.023,0.571,10.052,0.578C1019.911,866.637,1020.038,866.644,1020.16,866.63z"/>
	<path style="fill:#10325B;" d="M715.605,1459.87c0,0,0,24.17,6.58,47.22c5.61-0.47,11.12-0.93,16.51-1.41
		c-9.13-25.68-6.12-49.76-6.03-50.43C727.195,1456.87,721.515,1458.41,715.605,1459.87z"/>
	<path style="fill:#F99370;" d="M917.351,962.768c-40.03,22.86-81.694,50.624-101.909,94.1
		c-26.182,67.123,28.589,130.517,80.727,166.058c3.068,2.367,9.284,7.621,12.822,9.044c5.472,2.201,8.345-0.814,12.766-7.229
		c3.672-6.008,3.098-10.24-0.434-14.706c-3.749-4.739-10.676-9.653-13.95-14.036c-73.183-86.339-58.667-124.26,40.315-170.313
		C988.752,1005.656,958.566,943.116,917.351,962.768z"/>
	<path style="fill:#10325B;" d="M890.718,1219.114c0,0,3.343-13.323,20.317-19.13c0,0-0.782-4.151-4.895-5.445
		c0,0-15.165,0.674-21.679,19.954C884.461,1214.493,886.109,1218.115,890.718,1219.114z"/>
	<path style="fill:#F4D4BE;" d="M812.419,1065.821c2.212-57.474,72.15-104.864,138.853-115.714c0,0,20.77,23.528,24.448,73.021
		c1.009,13.574-28.992,23.597-51.133,29.843c-36.108,9.534-39.276,41.951-64.215,44.513
		C860.373,1097.483,822.643,1096.683,812.419,1065.821z"/>
	<path style="fill:#EABFAC;" d="M1007.855,962.188c0,0,6.049-6.84,15.061-6.365c0,0,2.671,77.411-24.039,89.883
		c0,0-18.568-12.807-26.834-40.059c-8.26-27.234-13.237-45.172-20.77-55.541c0,0,14.895-1.962,20.76,4.273
		c0,0,7.921,15.183,13.878,36.8c5.957,21.617,12.967,32,12.967,32S1006.473,989.606,1007.855,962.188z"/>
	<path style="fill:#F99370;" d="M953.348,1214.368c-0.301,1.464-1.732,2.407-3.196,2.106l-0.187-0.039
		c-1.19-0.245-2.366-0.524-3.551-0.74c-1.194-0.169-2.368-0.425-3.563-0.523c-2.153-0.278-4.309-0.364-6.444-0.38
		c4.607,6.864,11.234,12.449,11.233,12.504c1.366,0.781,2.755,1.556,4.133,2.311c2.522,1.378,5.067,2.73,7.635,4.039
		c5.135,2.623,10.351,5.111,15.636,7.46l0.01,0.004c1.234,0.547,1.895,1.941,1.494,3.266c-0.435,1.434-1.949,2.243-3.383,1.809
		c-5.634-1.708-11.229-3.57-16.778-5.586c-2.776-1.005-5.537-2.058-8.291-3.146c-1.083-0.43-2.154-0.863-3.226-1.302
		c-0.028,0.043-0.059,0.084-0.088,0.126c2.46,2.193,4.959,4.345,7.5,6.448c2.851,2.37,5.763,4.664,8.723,6.891
		c2.95,2.246,5.99,4.353,9.057,6.429l0.055,0.037c1.136,0.775,1.522,2.299,0.85,3.533c-0.716,1.314-2.361,1.799-3.675,1.083
		c-3.352-1.826-6.691-3.694-9.933-5.703c-3.256-1.991-6.467-4.054-9.62-6.2c-3.11-2.107-6.181-4.271-9.205-6.506
		c-0.021,0.014-0.043,0.028-0.064,0.042c0.811,1.011,1.631,2.02,2.483,3.01c1.922,2.238,3.912,4.438,5.994,6.552
		c2.08,2.116,4.213,4.195,6.438,6.172c2.204,2.006,4.51,3.893,6.846,5.756l0.049,0.039c1.06,0.843,1.345,2.365,0.614,3.546
		c-0.788,1.273-2.458,1.666-3.731,0.878c-2.646-1.638-5.279-3.317-7.819-5.13c-2.563-1.784-5.045-3.685-7.489-5.643
		c-2.446-1.957-4.812-4.017-7.132-6.147c-1.161-1.064-2.299-2.159-3.428-3.274c-0.508-0.511-1-1.008-1.494-1.519
		c-0.038,0.014-0.076,0.027-0.114,0.041c0.406,0.688,0.807,1.377,1.232,2.062c1.272,2.036,2.631,4.044,4.039,6.028
		c1.414,1.981,2.887,3.932,4.407,5.854c1.518,1.925,3.096,3.809,4.698,5.681l0.023,0.026c0.864,1.007,0.88,2.521-0.019,3.55
		c-0.986,1.128-2.7,1.244-3.828,0.258c-1.911-1.67-3.809-3.365-5.66-5.119c-1.854-1.752-3.673-3.551-5.451-5.404
		c-1.773-1.859-3.512-3.763-5.194-5.747c-0.839-0.996-1.67-2.002-2.481-3.047l-1.21-1.593c-0.15-0.208-0.293-0.404-0.436-0.603
		c-2.521-1.478-11.685-7.896-21.585-24.01c-3.138-5.108,9.748-22.159,15.632-21.948c4.119,0.148,15.539,3.392,18.12,4.253
		c1.423,0.074,2.836,0.199,4.237,0.368c2.675,0.384,5.316,0.863,7.882,1.575c1.296,0.302,2.546,0.761,3.813,1.135
		c1.253,0.42,2.481,0.903,3.715,1.351C952.864,1211.73,953.622,1213.035,953.348,1214.368z"/>
	<path style="fill:#EABFAC;" d="M936.818,1040.489c0,0-22.536,8.571-33.19,22.498c0,0-2.794,11.14-4.135,17.343
		C899.494,1080.33,907.129,1060.915,936.818,1040.489z"/>
</g>
<g id="_x31_">
	<path style="fill:#F99370;" d="M720.786,733.342l1.786-10.895l-25.996-10.553l-4.27,10.553
		C692.305,722.447,699.831,737.939,720.786,733.342z"/>
	<path style="fill:#F99370;" d="M325.264,1227.565l2.604-8.778l-31.149-3.064c0,0,1.848,14.523,2.201,23.049L325.264,1227.565z"/>
	<path style="fill:#3A72AA;" d="M520.805,877.52l11.83,107.31c14.41-7.56,27.72-15.56,40.01-23.87
		c33.41-22.59,59.32-47.52,79.4-72.34c0.02-0.02,0.03-0.03,0.03-0.03c48.81-60.32,63.21-120.01,67.23-144.11h0.01
		c1.18-7.13,1.47-11.14,1.47-11.14c-15.24,1.84-28.48-10.89-28.48-10.89c-1.32,3.56-2.7,7.03-4.14,10.42
		C642.545,840.33,541.725,859.71,520.805,877.52z"/>
	<path style="fill:#3A72AA;" d="M295.665,1205.71c0.58,6.43,1.05,10.01,1.05,10.01c10.76,7.15,31.15,3.07,31.15,3.07
		c1.27-3.47,2.57-7.19,3.9-11.12c14.8-43.6,33.16-113.11,43.08-154.93c13.21-55.72,56.14-64.7,64.97-77.99l-28.65-80.54
		C280.545,952.01,291.285,1157.83,295.665,1205.71z"/>
	<path style="fill:#F99370;" d="M735.143,688.361c9.226-6.34-0.176-19.436-5.107-7.322l0.157-0.111
		C725.328,684.07,730.369,691.648,735.143,688.361z"/>
	<path style="fill:#F99370;" d="M730.282,684.303c9.599-11.546-6.378-17.702-5.962-6.962c-0.043-0.107,0.018-0.162-0.056,0.057
		c-0.071,0.203-0.261,0.524-0.421,0.717c-0.003,0.007-0.08,0.089,0.026-0.023C719.78,682.197,726.313,688.529,730.282,684.303z"/>
	<path style="fill:#F99370;" d="M724.857,679.277l1.954-4.044c2.597-5.179-5.588-9.146-8.035-3.887c0,0-1.954,4.044-1.954,4.044
		C714.226,680.568,722.411,684.535,724.857,679.277z"/>
	<path style="fill:#F99370;" d="M696.585,715.488c0,0-0.84-30.546,13.451-43.907l26.234,13.695c0,0-2.572,24.894-15.876,41.538
		L696.585,715.488z"/>
	<path style="fill:#F99370;" d="M702.175,687.456c-0.017-6.252,21.284-46.44,27.931-39.796c2.76,2.56-0.523,5.565-2.064,7.732
		c-5.819,8.107-10.509,17.201-13.31,26.779c-1.943,4.562-0.226,12.564-6.957,13.015
		C703.683,695.438,700.875,691.218,702.175,687.456z"/>
	<path style="fill:#F99370;" d="M697.629,664.87c4.239,11.522,8.762,23.239,13.853,34.344c4.197,9.517-10.964,14.865-13.651,4.796
		c-3.076-12.431-5.329-24.715-7.433-37.278C689.572,662.35,696.263,660.664,697.629,664.87z"/>
	<path style="fill:#E57D61;" d="M731.828,689.716c-4.978-0.803-4.496-6.828-2.313-2.967c2.663,3.535,4.862,0.305,6.188,1.237
		C736.105,689.671,733.008,689.887,731.828,689.716z"/>
	<path style="fill:#E57D61;" d="M726.22,686.269c-1.931-0.037-5.624-3.641-3.657-5.185c1.519,0.35,0.566,3.871,4.573,3.907
		c2.586-0.032,4.028-2.679,4.886-4.784c0.578-0.776,0.015-3.67,1.321-3.787c0.364,0.032,0.645,0.361,0.611,0.732
		C733.697,681.272,731.131,686.99,726.22,686.269z"/>
	<path style="fill:#E57D61;" d="M720.003,682.408c-3.324-0.505-5.303-4.296-3.787-7.313c0,0,1.954-4.044,1.954-4.044
		c0.37-0.789,1.605-0.198,1.213,0.586l-1.954,4.045c-2.209,4.405,4.753,7.757,6.821,3.301c0.042-0.077,2.009-3.532,2.231-6.68
		c0.026-0.371,0.348-0.651,0.72-0.625c0.373,0.028,0.651,0.348,0.625,0.72C726.607,678.515,725.293,682.721,720.003,682.408z"/>
	<path style="fill:#E57D61;" d="M715.189,704.579c-2.053-10.501-11.563-23.949-12.107-23.677
		c0.367-4.252,11.291,11.207,12.887,22.932C716.027,704.273,715.622,704.657,715.189,704.579z"/>
	<path style="fill:#F99370;" d="M485.652,871.607l-0.07,11.798c7.23,6.605-0.661,18.106-6.732,18.344
		c-9.242,0.362-26.431-12.77-29.612-17.052c0,0,0.867-11.283,0.628-16.49L485.652,871.607z"/>
	<path style="fill:#E57D61;" d="M445.892,831.465c0.096,0.619,0.214,1.247,0.367,1.853c0.823-0.561,3.448,21.923,3.686,38.264
		c15.454,6.777,32.537,3.477,35.663,2.791c0.06-20.704-2.093-39.536-5.292-51.338C473.822,803.079,442.44,810.801,445.892,831.465z"
		/>
	<path style="fill:#8E4A35;" d="M496.229,782.952c0,0,1.324-28.787-24.556-34.676l-14.069,13.751L496.229,782.952z"/>
	<path style="fill:#F99370;" d="M421.725,821.603c4.583,15.392,12.2,32.422,25.974,41.204l0.02-0.003
		c5.595,3.53,12.002,5.363,18.664,5.801c38.024,5.479,75.492-42.776,42.773-70.104c-11.962-8.592-15.594-24.36-25.657-33.529
		c-14.36-15.951-40.743-11.59-53.191,4.568C419.059,784.148,416.959,802.534,421.725,821.603z"/>
	<path style="fill:#C16256;" d="M480.46,804.087c1.083-2.92-3.528-4.554-4.525-1.603
		C474.853,805.404,479.464,807.038,480.46,804.087z"/>
	<path style="fill:#C16256;" d="M500.031,798.116c1.083-2.92-3.528-4.554-4.525-1.603
		C494.423,799.433,499.034,801.067,500.031,798.116z"/>
	<path style="fill:#E57D61;" d="M421.725,821.603c4.583,15.392,12.2,32.422,25.974,41.204l0.02-0.003
		c1.141,0.722,2.326,1.377,3.542,1.955c-10.674-8.149-18.771-27.553-18.771-27.553l0.003-17.328
		c13.239-17.445,4.408-33.974,4.408-33.974c26.444,3.833,32.988-13.03,32.988-13.03c8.201-0.011,16.154-5.185,16.154-5.185
		c-13.813-18.454-42.347-15.676-55.733,1.851C419.059,784.148,416.959,802.534,421.725,821.603z"/>
	<path style="fill:#8E4A35;" d="M424.208,779.608c11.403,2.874,18.492,27.566-4.89,48.124
		C419.318,827.732,401.496,787.854,424.208,779.608z"/>
	<path style="fill:#C16256;" d="M495.162,819.801c4.349-0.62,10.742-4.44,4.728-7.594c-6.117-2.326-8.518-11.854-10.597-11.232
		c-1.81,0.849,4.52,10.496,9.944,12.928c3.809,1.7-3.267,4.753-6.441,4.078c-0.492-0.091-0.967,0.237-1.057,0.73
		C491.693,820.362,494.019,819.827,495.162,819.801z"/>
	<path style="fill:#F99370;" d="M412.771,830.847c6.197,17.365,27.413,9.909,21.384-7.515
		C427.959,805.969,406.743,813.425,412.771,830.847z"/>
	<path style="fill:#C16256;" d="M418.924,833.801c0.594-0.07,0.967-0.733,0.709-1.276c-4.325-8.577-1.651-13.599,5.802-11.803
		c1.135,0.307,1.589-1.498,0.438-1.763c-7.903-2.087-13.443,3.465-7.893,14.316C418.148,833.648,418.538,833.852,418.924,833.801z"
		/>
	<path style="fill:#C16256;" d="M427.167,831.447c2.769-0.588-3.688-8.524-10.579-8.096c-0.501,0.038-0.882,0.464-0.849,0.964
		c0.032,0.501,0.463,0.881,0.964,0.849C423.785,824.976,425.483,831.43,427.167,831.447z"/>
	<path style="fill:#8E4A35;" d="M425.778,754.102c7.345-10.744,21.551-17.61,23.705-28.082c0,0,6.527,9.139,7.347,20.193
		c3.513-5.145,6.627-10.684,8.875-16.483c4.717,3.664,7.573,8.194,8.888,13.055c12.859-4.607,25.153-0.812,25.153-0.812
		c-4.296,20.105-19.61,26.405-32.045,28.097c-9.038,11.227-24.944,17.859-42.167,10.151l-12.775,21.859
		C389.669,771.887,417.664,757.485,425.778,754.102z"/>
	<path style="fill:#FDFFDE;" d="M419.189,828.521c1.93,5.031,9.788,1.885,7.71-3.088
		C424.969,820.402,417.112,823.549,419.189,828.521z"/>
	<path style="fill:#FDFFDE;" d="M434.444,836.526c2.298-0.214,3.08-3.534,1.043-4.722c0,0-11.069-7-11.069-7
		c-2.788-1.822-5.596,2.603-2.747,4.346C422.738,829.563,433.369,837.241,434.444,836.526z"/>
	<path style="fill:#C16256;" d="M487.344,831.344c0.031,0.004,0.062,0.008,0.093,0.009c9.419,0.518,15.783-3.116,16.05-3.271
		c0.534-0.311,0.715-0.995,0.405-1.53c-0.309-0.535-0.997-0.717-1.53-0.408c-0.06,0.035-6.087,3.451-14.802,2.972
		c-0.617-0.034-1.146,0.439-1.18,1.057C486.348,830.759,486.772,831.264,487.344,831.344z"/>
	<path style="fill:#F99370;" d="M609.522,1700.236h-85.434c-3.902,0-6.978-3.27-6.783-7.162c0.094-1.882,0.317-4.103,0.756-6.625
		c1.235-7.116,1.749-14.331,1.621-21.545c-0.059-3.454-0.267-6.909-0.622-10.353l-6.15-59.933c-0.41-3.999,2.732-7.475,6.757-7.475
		h37.706c4.087,0,7.248,3.578,6.739,7.628l-6.858,54.609c-1.5,11.948,6.205,23.091,17.904,26c8.336,2.073,16.802,3.315,22.857,4.872
		c0.781,0.207,1.561,0.415,2.312,0.632h0.01c6.421,1.83,11.728,4.23,14.796,8.734
		C618.206,1694.127,614.984,1700.236,609.522,1700.236z"/>
	<path style="fill:#1D3F70;" d="M514.808,1691.385c0.23,4.184,2.308,8.956,7.16,8.853c0,0,88.619,0,88.619,0
		c4.579,0.006,7.828-4.578,6.201-8.853c-3.44-9.662-15.66-24.063-57.535-26.424c-6.013,0.584-19.722,2.636-39.572-0.057
		C519.681,1664.904,512.873,1675.599,514.808,1691.385z"/>
	<path style="fill:#395B96;" d="M616.788,1691.385h-101.98c0.375,3.109,1.235,6.129,2.797,8.853h92.982
		c4.517,0,7.753-4.445,6.255-8.701C616.825,1691.486,616.807,1691.435,616.788,1691.385z"/>
	<path style="fill:#F99370;" d="M417.814,1694.072l-51.911,0.693c0-6.415,0.529-8.741,3.366-13.705
		c10.428-13.844-2.021-75.748-1.661-91.923c-2.417-4.425,45.079-0.949,45.833-1.997c1.073,0.002,1.918,0.915,1.833,1.983
		l-5.618,70.738C407.136,1673.291,417.455,1681.411,417.814,1694.072z"/>
	<path style="fill:#1D3F70;" d="M372.699,1700.238h37.876c4.764,0,8.612-3.947,8.406-8.701c-0.002-0.051-0.005-0.101-0.007-0.152
		c-0.474-10.402-4.882-26.273-27.333-26.48c-22.53-0.197-26.888,15.949-27.343,26.48c-0.003,0.061-0.005,0.122-0.008,0.183
		C364.107,1696.31,367.947,1700.238,372.699,1700.238z"/>
	<path style="fill:#395B96;" d="M372.699,1700.238h37.876c4.764,0,8.612-3.947,8.406-8.701l-0.007-0.152h-54.676
		c-0.003,0.061-0.005,0.122-0.008,0.183C364.107,1696.31,367.947,1700.238,372.699,1700.238z"/>
	<path style="fill:#1D3F70;" d="M358.16,1651.438c0,0,42.702,9.8,64.701-0.73c0,0,0.909-5.251,2.497-14.646
		c9.339-55.19,42.117-298.439,51.811-416.558c0,0,22.563,345.902,27.264,416.558c0.575,8.715,0.888,13.926,0.846,14.646
		c0,0,5.275,1.767,13.057,3.346c13.862,2.813,35.662,5.033,49.764-4.382c0,0,0.543-4.787,1.431-13.61
		c6.372-63.303,41.373-304.835,4.959-502.452c0,0-129.078,11.851-208.55-10.839c0,0-21.669,196.109-7.32,513.291
		C359.034,1645.213,358.296,1650.678,358.16,1651.438z"/>
	<path style="fill:#10325B;" d="M517.452,1639.821c-4.279-60.184-20.863-338.161-23.643-373.22
		c-3.196-40.317-16.64-47.097-16.64-47.097s27.568,367.712,28.104,385.61c0.001,0.005,0.001,0.015,0.001,0.02
		c0.008,0.279,0.01,45.472,0.004,45.574c0,0,5.276,1.767,13.058,3.346c13.862,2.812,35.662,5.033,49.764-4.382
		c0,0,0.543-4.787,1.431-13.61C569.531,1636.062,546.675,1645.99,517.452,1639.821z"/>
	<path style="fill:#10325B;" d="M550.727,1643.913c15.647-138.862,11.999-267.652,6.184-351.242
		c-6.303-90.58-16.442-149.108-16.544-149.688l-3.939,0.689c0.102,0.579,10.211,58.949,16.497,149.34
		c5.801,83.409,9.439,211.916-6.172,350.454L550.727,1643.913z"/>
	<path style="fill:#10325B;" d="M393.628,1646.018c24.538-251.292,33.64-495.514,33.729-497.951l-3.998-0.146
		c-0.089,2.437-9.186,246.542-33.712,497.709L393.628,1646.018z"/>
	<path style="fill:#10325B;" d="M358.16,1651.438c0,0,42.702,9.8,64.701-0.73c0,0,0.909-5.251,2.497-14.646
		c0,0-29.102,7.965-66.738,0C358.453,1645.22,358.296,1650.678,358.16,1651.438z"/>
	<path style="fill:#3A72AA;" d="M363.016,1155.336c63.038,23.95,149.106,22.36,214.654-3.241c0,0,4.675-123.102-6.442-191.108
		c-13.5-11.203-56.539-69.286-85.389-77.788c0.046,0.187,0.084,0.342,0.121,0.582c1.832,17.719-8.79,19.305-36.724,0.911
		c-60.56,5.539-72.249,67.295-75.367,123.331C372.006,1033.004,363.016,1155.336,363.016,1155.336z"/>
	<path style="fill:#23659B;" d="M411.167,894.209c0.168,1.629,0.366,3.251,0.596,4.868c2.724,19.873,9.084,39.009,14.51,52.725
		c4.959,12.5,5.475,22.41,5.475,22.41l22.912,16.238l-7.303,22.359c10.755,26.237,39.214,54.246,39.214,54.246
		c23.1-21.539,38.369-56.029,38.369-56.029l-8.906-24.941l13.351-22.004c0.507-5.109,0.748-10.335,0.776-15.561
		c0.067-11.833-0.954-23.676-2.342-34.197c-2.775-21.031-7.017-36.804-7.017-36.804c-6.724,1.167-13.02,2.231-18.385,3.133
		c-8.413,1.407-14.514,2.377-16.301,2.664c-0.095-0.044-0.181-0.076-0.276-0.119c0.014,0.042,0.018,0.093,0.039,0.157
		c-0.197,0.033-0.3,0.049-0.3,0.049s0.143,0.131,0.382,0.376c0,0,0,0-0.001,0.01c0.366,1.949,1.063,7.396-1.433,10.836
		c-3.322,4.587-12.308,5.611-35.289-9.935c-6.777,1.472-14.622,1.767-20.173,4.156C429.064,888.848,422.346,890.258,411.167,894.209
		z"/>
	<path style="fill:#F4D4BE;" d="M429.064,888.848c0,0,0.007,0.021,0.03,0.075c0.199,0.603,1.613,4.747,3.922,11.387
		c0.007,0.021,0.016,0.032,0.013,0.052c6.305,18.078,19.268,54.526,32.692,88.161c7.548,18.937,15.262,36.979,22.009,50.343
		c0,0,8.15-23.008,13.552-56.766c2.589-16.258,4.545-35.008,4.647-54.872c0.062-11.137-0.465-22.619-1.794-34.211
		c-0.469-4.113-1.038-8.231-1.717-12.363c-8.361,1.394-16.379,2.573-16.577,2.545c0.014,0.042,0.731,6.664-2.211,9.456
		c-4.766,4.518-17.069,5.506-34.392-7.963C442.46,886.164,434.615,886.459,429.064,888.848z"/>
	<path style="fill:#1D3F70;" d="M473.042,910.519c-1.942,27.524-5.649,62.678-7.322,78.004c5.44,17.451,12.39,38.345,21.494,52.845
		c0,0,11.639-26.911,14.067-59.268c-6.011-43.328-16.571-73.96-16.571-73.96L473.042,910.519z"/>
	<path style="fill:#1D3F70;" d="M484.706,908.136c0,0-3.477,7.637-11.661,2.38l0.42-11.539l5.4-1.804L484.706,908.136z"/>
	<path style="fill:#EABFAC;" d="M485.839,883.199c0,0,3.94-2.626,14.53-2.207c0,0,3.57,13.88-14.559,28.72
		c0,0-4.76-7.191-8.428-9.246l-5.319,12.322c0,0-31.359-8.716-36.768-25.758c0,0,8.168-3.495,13.941-2.339
		c0,0,13.786,6.755,26.705,10.773C475.942,895.465,481.902,890.847,485.839,883.199z"/>
	<path style="fill:#23659B;" d="M479.394,1099.569c-0.446,3.212,1.797,6.178,5.009,6.624c3.212,0.446,6.178-1.797,6.624-5.009
		s-1.797-6.178-5.009-6.624S479.84,1096.357,479.394,1099.569z"/>
	<path style="fill:#23659B;" d="M478.158,1137.805c-0.446,3.212,1.797,6.178,5.009,6.624s6.178-1.797,6.624-5.01
		s-1.797-6.178-5.009-6.624S478.603,1134.592,478.158,1137.805z"/>
	<path style="fill:#C16256;" d="M487.732,789.555c0.174,0.024,0.356,0.008,0.533-0.056l6.991-2.52
		c0.581-0.21,0.883-0.852,0.673-1.434c-0.209-0.582-0.849-0.884-1.434-0.674l-6.991,2.519c-0.581,0.21-0.883,0.852-0.673,1.434
		C486.978,789.23,487.333,789.5,487.732,789.555z"/>
	<path style="fill:#C16256;" d="M470.997,797.098c0.256,0.035,0.526-0.017,0.761-0.169l7.823-5.052
		c0.52-0.336,0.668-1.029,0.333-1.549c-0.335-0.519-1.027-0.669-1.549-0.333l-7.823,5.052c-0.52,0.336-0.668,1.029-0.333,1.549
		C470.394,796.881,470.685,797.055,470.997,797.098z"/>
	<path style="fill:#F99370;" d="M340.558,1268.692c-4.695,1.928-7.406-9.811-11.284-12.342c-2.128,7.872-1.996,16.422-2.038,16.457
		c1.985,9.905,4.502,19.685,7.462,29.354c-3.554,14.941-14.146-22.233-15.849-25.687c-0.05,0.007-0.101,0.01-0.151,0.016
		c-0.131,10.579,0.318,21.185,1.656,31.682c-7.042,14.527-9.546-28.489-10.178-32.445c-0.024-0.006-0.048-0.013-0.073-0.02
		c-1.807,9.929-2.401,20.085-1.909,30.173c-8.396,14.007-7.55-29.887-6.859-33.885c-0.035-0.02-0.069-0.039-0.104-0.059
		c-2.555,7.592-4.141,15.508-5.31,23.44c-9.693,11.924-3.562-25.942-2.534-29.536c-0.532-2.834,0.552-14.974,5.533-30.132
		c1.846-5.619,22.891-15.879,26.344-11.207c3.238,4.38,9.929,20.124,10.959,22.603
		C339.015,1251.608,344.615,1264.125,340.558,1268.692z"/>
	<path style="fill:#23659B;" d="M295.665,1205.71c0.58,6.43,1.05,10.01,1.05,10.01c10.76,7.15,31.15,3.07,31.15,3.07
		c1.27-3.47,2.57-7.19,3.9-11.12C331.325,1207.78,317.235,1211.26,295.665,1205.71z"/>
	<path style="fill:#23659B;" d="M688.165,732.87c12.89,12.38,31.14,11.61,31.14,11.61h0.01c1.18-7.13,1.47-11.14,1.47-11.14
		c-15.24,1.84-28.48-10.89-28.48-10.89C690.985,726.01,689.605,729.48,688.165,732.87z"/>
	<path style="fill:#23659B;" d="M565.825,928.66c0,0,3.04,15.13,5.4,32.33l1.42-0.03c33.41-22.59,59.32-47.52,79.4-72.34
		C650.625,889.92,596.974,950.106,565.825,928.66z"/>
	<path style="fill:#23659B;" d="M387.612,1000c0,0-14.042,41.368-18.891,77.763l-2.349,31.914c0,0,18.431-95.23,21.239-110.805V1000
		z"/>
</g>
</svg>
